<?xml version='1.0' encoding='utf-8'?>
<svg xmlns:xlink="http://www.w3.org/1999/xlink" xmlns="http://www.w3.org/2000/svg" id="chart-62227e61-ae97-4de4-8a70-9bf304e4b0bd" class="pygal-chart" viewBox="0 0 800 600"><!--Generated with pygal 2.4.0 (etree) ©Kozea 2012-2016 on 2021-01-26--><!--http://pygal.org--><!--http://github.com/Kozea/pygal--><defs><style type="text/css">#chart-62227e61-ae97-4de4-8a70-9bf304e4b0bd{-webkit-user-select:none;-webkit-font-smoothing:antialiased;font-family:Consolas,"Liberation Mono",Menlo,Courier,monospace}#chart-62227e61-ae97-4de4-8a70-9bf304e4b0bd .title{font-family:Consolas,"Liberation Mono",Menlo,Courier,monospace;font-size:16px}#chart-62227e61-ae97-4de4-8a70-9bf304e4b0bd .legends .legend text{font-family:Consolas,"Liberation Mono",Menlo,Courier,monospace;font-size:14px}#chart-62227e61-ae97-4de4-8a70-9bf304e4b0bd .axis text{font-family:Consolas,"Liberation Mono",Menlo,Courier,monospace;font-size:10px}#chart-62227e61-ae97-4de4-8a70-9bf304e4b0bd .axis text.major{font-family:Consolas,"Liberation Mono",Menlo,Courier,monospace;font-size:10px}#chart-62227e61-ae97-4de4-8a70-9bf304e4b0bd .text-overlay text.value{font-family:Consolas,"Liberation Mono",Menlo,Courier,monospace;font-size:16px}#chart-62227e61-ae97-4de4-8a70-9bf304e4b0bd .text-overlay text.label{font-family:Consolas,"Liberation Mono",Menlo,Courier,monospace;font-size:10px}#chart-62227e61-ae97-4de4-8a70-9bf304e4b0bd .tooltip{font-family:Consolas,"Liberation Mono",Menlo,Courier,monospace;font-size:14px}#chart-62227e61-ae97-4de4-8a70-9bf304e4b0bd text.no_data{font-family:Consolas,"Liberation Mono",Menlo,Courier,monospace;font-size:64px}
#chart-62227e61-ae97-4de4-8a70-9bf304e4b0bd{background-color:rgba(249,249,249,1)}#chart-62227e61-ae97-4de4-8a70-9bf304e4b0bd path,#chart-62227e61-ae97-4de4-8a70-9bf304e4b0bd line,#chart-62227e61-ae97-4de4-8a70-9bf304e4b0bd rect,#chart-62227e61-ae97-4de4-8a70-9bf304e4b0bd circle{-webkit-transition:150ms;-moz-transition:150ms;transition:150ms}#chart-62227e61-ae97-4de4-8a70-9bf304e4b0bd .graph &gt; .background{fill:rgba(249,249,249,1)}#chart-62227e61-ae97-4de4-8a70-9bf304e4b0bd .plot &gt; .background{fill:rgba(255,255,255,1)}#chart-62227e61-ae97-4de4-8a70-9bf304e4b0bd .graph{fill:rgba(0,0,0,.87)}#chart-62227e61-ae97-4de4-8a70-9bf304e4b0bd text.no_data{fill:rgba(0,0,0,1)}#chart-62227e61-ae97-4de4-8a70-9bf304e4b0bd .title{fill:rgba(0,0,0,1)}#chart-62227e61-ae97-4de4-8a70-9bf304e4b0bd .legends .legend text{fill:rgba(0,0,0,.87)}#chart-62227e61-ae97-4de4-8a70-9bf304e4b0bd .legends .legend:hover text{fill:rgba(0,0,0,1)}#chart-62227e61-ae97-4de4-8a70-9bf304e4b0bd .axis .line{stroke:rgba(0,0,0,1)}#chart-62227e61-ae97-4de4-8a70-9bf304e4b0bd .axis .guide.line{stroke:rgba(0,0,0,.54)}#chart-62227e61-ae97-4de4-8a70-9bf304e4b0bd .axis .major.line{stroke:rgba(0,0,0,.87)}#chart-62227e61-ae97-4de4-8a70-9bf304e4b0bd .axis text.major{fill:rgba(0,0,0,1)}#chart-62227e61-ae97-4de4-8a70-9bf304e4b0bd .axis.y .guides:hover .guide.line,#chart-62227e61-ae97-4de4-8a70-9bf304e4b0bd .line-graph .axis.x .guides:hover .guide.line,#chart-62227e61-ae97-4de4-8a70-9bf304e4b0bd .stackedline-graph .axis.x .guides:hover .guide.line,#chart-62227e61-ae97-4de4-8a70-9bf304e4b0bd .xy-graph .axis.x .guides:hover .guide.line{stroke:rgba(0,0,0,1)}#chart-62227e61-ae97-4de4-8a70-9bf304e4b0bd .axis .guides:hover text{fill:rgba(0,0,0,1)}#chart-62227e61-ae97-4de4-8a70-9bf304e4b0bd .reactive{fill-opacity:.7;stroke-opacity:.8}#chart-62227e61-ae97-4de4-8a70-9bf304e4b0bd .ci{stroke:rgba(0,0,0,.87)}#chart-62227e61-ae97-4de4-8a70-9bf304e4b0bd .reactive.active,#chart-62227e61-ae97-4de4-8a70-9bf304e4b0bd .active .reactive{fill-opacity:.8;stroke-opacity:.9;stroke-width:4}#chart-62227e61-ae97-4de4-8a70-9bf304e4b0bd .ci .reactive.active{stroke-width:1.5}#chart-62227e61-ae97-4de4-8a70-9bf304e4b0bd .series text{fill:rgba(0,0,0,1)}#chart-62227e61-ae97-4de4-8a70-9bf304e4b0bd .tooltip rect{fill:rgba(255,255,255,1);stroke:rgba(0,0,0,1);-webkit-transition:opacity 150ms;-moz-transition:opacity 150ms;transition:opacity 150ms}#chart-62227e61-ae97-4de4-8a70-9bf304e4b0bd .tooltip .label{fill:rgba(0,0,0,.87)}#chart-62227e61-ae97-4de4-8a70-9bf304e4b0bd .tooltip .label{fill:rgba(0,0,0,.87)}#chart-62227e61-ae97-4de4-8a70-9bf304e4b0bd .tooltip .legend{font-size:.8em;fill:rgba(0,0,0,.54)}#chart-62227e61-ae97-4de4-8a70-9bf304e4b0bd .tooltip .x_label{font-size:.6em;fill:rgba(0,0,0,1)}#chart-62227e61-ae97-4de4-8a70-9bf304e4b0bd .tooltip .xlink{font-size:.5em;text-decoration:underline}#chart-62227e61-ae97-4de4-8a70-9bf304e4b0bd .tooltip .value{font-size:1.5em}#chart-62227e61-ae97-4de4-8a70-9bf304e4b0bd .bound{font-size:.5em}#chart-62227e61-ae97-4de4-8a70-9bf304e4b0bd .max-value{font-size:.75em;fill:rgba(0,0,0,.54)}#chart-62227e61-ae97-4de4-8a70-9bf304e4b0bd .map-element{fill:rgba(255,255,255,1);stroke:rgba(0,0,0,.54) !important}#chart-62227e61-ae97-4de4-8a70-9bf304e4b0bd .map-element .reactive{fill-opacity:inherit;stroke-opacity:inherit}#chart-62227e61-ae97-4de4-8a70-9bf304e4b0bd .color-0,#chart-62227e61-ae97-4de4-8a70-9bf304e4b0bd .color-0 a:visited{stroke:#F44336;fill:#F44336}#chart-62227e61-ae97-4de4-8a70-9bf304e4b0bd .text-overlay .color-0 text{fill:black}
#chart-62227e61-ae97-4de4-8a70-9bf304e4b0bd text.no_data{text-anchor:middle}#chart-62227e61-ae97-4de4-8a70-9bf304e4b0bd .guide.line{fill:none}#chart-62227e61-ae97-4de4-8a70-9bf304e4b0bd .centered{text-anchor:middle}#chart-62227e61-ae97-4de4-8a70-9bf304e4b0bd .title{text-anchor:middle}#chart-62227e61-ae97-4de4-8a70-9bf304e4b0bd .legends .legend text{fill-opacity:1}#chart-62227e61-ae97-4de4-8a70-9bf304e4b0bd .axis.x text{text-anchor:middle}#chart-62227e61-ae97-4de4-8a70-9bf304e4b0bd .axis.x:not(.web) text[transform]{text-anchor:start}#chart-62227e61-ae97-4de4-8a70-9bf304e4b0bd .axis.x:not(.web) text[transform].backwards{text-anchor:end}#chart-62227e61-ae97-4de4-8a70-9bf304e4b0bd .axis.y text{text-anchor:end}#chart-62227e61-ae97-4de4-8a70-9bf304e4b0bd .axis.y text[transform].backwards{text-anchor:start}#chart-62227e61-ae97-4de4-8a70-9bf304e4b0bd .axis.y2 text{text-anchor:start}#chart-62227e61-ae97-4de4-8a70-9bf304e4b0bd .axis.y2 text[transform].backwards{text-anchor:end}#chart-62227e61-ae97-4de4-8a70-9bf304e4b0bd .axis .guide.line{stroke-dasharray:4,4}#chart-62227e61-ae97-4de4-8a70-9bf304e4b0bd .axis .major.guide.line{stroke-dasharray:6,6}#chart-62227e61-ae97-4de4-8a70-9bf304e4b0bd .horizontal .axis.y .guide.line,#chart-62227e61-ae97-4de4-8a70-9bf304e4b0bd .horizontal .axis.y2 .guide.line,#chart-62227e61-ae97-4de4-8a70-9bf304e4b0bd .vertical .axis.x .guide.line{opacity:0}#chart-62227e61-ae97-4de4-8a70-9bf304e4b0bd .horizontal .axis.always_show .guide.line,#chart-62227e61-ae97-4de4-8a70-9bf304e4b0bd .vertical .axis.always_show .guide.line{opacity:1 !important}#chart-62227e61-ae97-4de4-8a70-9bf304e4b0bd .axis.y .guides:hover .guide.line,#chart-62227e61-ae97-4de4-8a70-9bf304e4b0bd .axis.y2 .guides:hover .guide.line,#chart-62227e61-ae97-4de4-8a70-9bf304e4b0bd .axis.x .guides:hover .guide.line{opacity:1}#chart-62227e61-ae97-4de4-8a70-9bf304e4b0bd .axis .guides:hover text{opacity:1}#chart-62227e61-ae97-4de4-8a70-9bf304e4b0bd .nofill{fill:none}#chart-62227e61-ae97-4de4-8a70-9bf304e4b0bd .subtle-fill{fill-opacity:.2}#chart-62227e61-ae97-4de4-8a70-9bf304e4b0bd .dot{stroke-width:1px;fill-opacity:1}#chart-62227e61-ae97-4de4-8a70-9bf304e4b0bd .dot.active{stroke-width:5px}#chart-62227e61-ae97-4de4-8a70-9bf304e4b0bd .dot.negative{fill:transparent}#chart-62227e61-ae97-4de4-8a70-9bf304e4b0bd text,#chart-62227e61-ae97-4de4-8a70-9bf304e4b0bd tspan{stroke:none !important}#chart-62227e61-ae97-4de4-8a70-9bf304e4b0bd .series text.active{opacity:1}#chart-62227e61-ae97-4de4-8a70-9bf304e4b0bd .tooltip rect{fill-opacity:.95;stroke-width:.5}#chart-62227e61-ae97-4de4-8a70-9bf304e4b0bd .tooltip text{fill-opacity:1}#chart-62227e61-ae97-4de4-8a70-9bf304e4b0bd .showable{visibility:hidden}#chart-62227e61-ae97-4de4-8a70-9bf304e4b0bd .showable.shown{visibility:visible}#chart-62227e61-ae97-4de4-8a70-9bf304e4b0bd .gauge-background{fill:rgba(229,229,229,1);stroke:none}#chart-62227e61-ae97-4de4-8a70-9bf304e4b0bd .bg-lines{stroke:rgba(249,249,249,1);stroke-width:2px}</style><script type="text/javascript">window.pygal = window.pygal || {};window.pygal.config = window.pygal.config || {};window.pygal.config['62227e61-ae97-4de4-8a70-9bf304e4b0bd'] = {"allow_interruptions": false, "box_mode": "extremes", "classes": ["pygal-chart"], "css": ["file://style.css", "file://graph.css"], "defs": [], "disable_xml_declaration": false, "dots_size": 2.5, "dynamic_print_values": false, "explicit_size": false, "fill": false, "force_uri_protocol": "https", "formatter": null, "half_pie": false, "height": 600, "include_x_axis": false, "inner_radius": 0, "interpolate": null, "interpolation_parameters": {}, "interpolation_precision": 250, "inverse_y_axis": false, "js": ["//kozea.github.io/pygal.js/2.0.x/pygal-tooltips.min.js"], "legend_at_bottom": false, "legend_at_bottom_columns": null, "legend_box_size": 12, "logarithmic": false, "margin": 20, "margin_bottom": null, "margin_left": null, "margin_right": null, "margin_top": null, "max_scale": 16, "min_scale": 4, "missing_value_fill_truncation": "x", "no_data_text": "No data", "no_prefix": false, "order_min": null, "pretty_print": false, "print_labels": false, "print_values": false, "print_values_position": "center", "print_zeroes": true, "range": null, "rounded_bars": null, "secondary_range": null, "show_dots": false, "show_legend": false, "show_minor_x_labels": true, "show_minor_y_labels": true, "show_only_major_dots": false, "show_x_guides": false, "show_x_labels": true, "show_y_guides": true, "show_y_labels": true, "spacing": 10, "stack_from_top": false, "strict": false, "stroke": true, "stroke_style": null, "style": {"background": "rgba(249, 249, 249, 1)", "ci_colors": [], "colors": ["#F44336", "#3F51B5", "#009688", "#FFC107", "#FF5722", "#9C27B0", "#03A9F4", "#8BC34A", "#FF9800", "#E91E63", "#2196F3", "#4CAF50", "#FFEB3B", "#673AB7", "#00BCD4", "#CDDC39", "#9E9E9E", "#607D8B"], "font_family": "Consolas, \"Liberation Mono\", Menlo, Courier, monospace", "foreground": "rgba(0, 0, 0, .87)", "foreground_strong": "rgba(0, 0, 0, 1)", "foreground_subtle": "rgba(0, 0, 0, .54)", "guide_stroke_dasharray": "4,4", "label_font_family": "Consolas, \"Liberation Mono\", Menlo, Courier, monospace", "label_font_size": 10, "legend_font_family": "Consolas, \"Liberation Mono\", Menlo, Courier, monospace", "legend_font_size": 14, "major_guide_stroke_dasharray": "6,6", "major_label_font_family": "Consolas, \"Liberation Mono\", Menlo, Courier, monospace", "major_label_font_size": 10, "no_data_font_family": "Consolas, \"Liberation Mono\", Menlo, Courier, monospace", "no_data_font_size": 64, "opacity": ".7", "opacity_hover": ".8", "plot_background": "rgba(255, 255, 255, 1)", "stroke_opacity": ".8", "stroke_opacity_hover": ".9", "title_font_family": "Consolas, \"Liberation Mono\", Menlo, Courier, monospace", "title_font_size": 16, "tooltip_font_family": "Consolas, \"Liberation Mono\", Menlo, Courier, monospace", "tooltip_font_size": 14, "transition": "150ms", "value_background": "rgba(229, 229, 229, 1)", "value_colors": [], "value_font_family": "Consolas, \"Liberation Mono\", Menlo, Courier, monospace", "value_font_size": 16, "value_label_font_family": "Consolas, \"Liberation Mono\", Menlo, Courier, monospace", "value_label_font_size": 10}, "title": "Fitness evolution", "tooltip_border_radius": 0, "tooltip_fancy_mode": true, "truncate_label": null, "truncate_legend": null, "width": 800, "x_label_rotation": 0, "x_labels": null, "x_labels_major": null, "x_labels_major_count": null, "x_labels_major_every": null, "x_title": "Generations", "xrange": null, "y_label_rotation": 0, "y_labels": null, "y_labels_major": null, "y_labels_major_count": null, "y_labels_major_every": null, "y_title": "Fitness", "zero": 0, "legends": ["Fitness"]}</script><script type="text/javascript" xlink:href="https://kozea.github.io/pygal.js/2.0.x/pygal-tooltips.min.js" /></defs><title>Fitness evolution</title><g class="graph line-graph vertical"><rect x="0" y="0" width="800" height="600" class="background" /><g transform="translate(74, 46)" class="plot"><rect x="0" y="0" width="706.0" height="508" class="background" /><g class="axis y always_show"><path d="M0.000000 508.000000 h706.000000" class="line" /><g class="guides"><path d="M0.000000 470.244848 h706.000000" class="major guide line" /><text x="-5" y="473.74484812800887" class="major">50</text><title>50</title></g><g class="guides"><path d="M0.000000 401.517144 h706.000000" class="guide line" /><text x="-5" y="405.01714404460915" class="">60</text><title>60</title></g><g class="guides"><path d="M0.000000 332.789440 h706.000000" class="guide line" /><text x="-5" y="336.2894399612095" class="">70</text><title>70</title></g><g class="guides"><path d="M0.000000 264.061736 h706.000000" class="guide line" /><text x="-5" y="267.5617358778098" class="">80</text><title>80</title></g><g class="guides"><path d="M0.000000 195.334032 h706.000000" class="guide line" /><text x="-5" y="198.83403179441007" class="">90</text><title>90</title></g><g class="guides"><path d="M0.000000 126.606328 h706.000000" class="major guide line" /><text x="-5" y="130.10632771101035" class="major">100</text><title>100</title></g><g class="guides"><path d="M0.000000 57.878624 h706.000000" class="guide line" /><text x="-5" y="61.37862362761069" class="">110</text><title>110</title></g></g><g class="series serie-0 color-0"><path d="M13.576923 498.230769 L13.916516 478.162280 14.256109 465.131507 14.595702 458.176263 14.935295 443.715954 15.274887 439.069962 15.614480 431.509914 15.954073 420.293553 16.293666 409.572031 16.633259 393.902114 16.972852 381.063779 17.312445 362.892174 17.652038 350.328750 17.991630 344.335694 18.331223 342.328845 18.670816 334.878762 19.010409 330.040332 19.350002 327.016313 19.689595 324.514624 20.029188 324.239714 20.368781 320.748346 20.708373 323.387490 21.047966 315.744969 21.387559 314.013031 21.727152 312.638477 22.066745 311.566325 22.406338 307.717574 22.745931 307.580118 23.085524 303.978786 23.425116 300.817312 23.764709 298.398097 24.104302 297.793293 24.443895 293.559666 24.783488 291.552818 25.123081 290.838049 25.462674 292.927372 25.802267 290.838049 26.141859 292.240095 26.481452 288.996147 26.821045 289.353531 27.160638 281.051224 27.500231 275.168133 27.839824 275.003186 28.179417 277.367419 28.519010 271.484328 28.858602 270.687087 29.198195 271.896694 29.537788 269.367515 29.877381 267.635576 30.216974 269.642425 30.556567 267.388157 30.896160 264.171700 31.235752 262.577217 31.575345 261.092699 31.914938 254.824732 32.254531 251.058454 32.594124 251.718240 32.933717 250.343686 33.273310 250.041284 33.612903 250.701070 33.952495 245.395291 34.292088 244.268157 34.631681 245.477765 34.971274 244.213175 35.310867 244.075720 35.650460 239.374745 35.990053 234.701261 36.329646 233.271724 36.669238 233.079287 37.008831 228.763187 37.348424 224.914436 37.688017 224.007230 38.027610 223.045042 38.367203 217.189442 38.706796 213.780548 39.046389 212.488467 39.385981 210.344162 39.725574 208.062403 40.065167 206.907777 40.404760 205.258312 40.744353 203.168990 41.083946 206.220500 41.423539 198.715435 41.763132 196.956006 42.102724 194.096933 42.442317 190.413128 42.781910 191.127896 43.121503 193.409656 43.461096 188.076386 43.800689 191.182878 44.140282 189.973271 44.479875 180.928705 44.819467 178.976838 45.159060 181.533509 45.498653 179.031820 45.838246 174.220881 46.177839 175.045614 46.517432 177.382355 46.857025 191.320334 47.196618 202.206802 47.536210 186.316957 47.875803 183.925233 48.215396 168.392772 48.554989 164.818931 48.894582 173.753533 49.234175 171.994103 49.573768 180.406374 49.913361 165.533699 50.252953 165.918574 50.592546 169.904781 50.932139 167.073200 51.271732 161.190108 51.611325 165.588681 51.950918 163.471868 52.290511 148.984068 52.630104 149.808801 52.969696 145.547683 53.309289 155.142070 53.648882 139.966993 53.988475 148.654175 54.328068 151.045899 54.667661 141.341547 55.007254 135.211036 55.346847 137.052939 55.686439 139.059788 56.026032 133.836482 56.365625 127.211132 56.705218 123.802237 57.044811 123.554818 57.384404 123.637291 57.723997 136.585590 58.063589 132.132035 58.403182 123.499835 58.742775 128.475721 59.082368 118.029110 59.421961 115.829824 59.761554 117.204378 60.101147 112.475912 60.440740 115.527422 60.780332 118.771369 61.119925 113.410609 61.459518 109.864259 61.799111 105.960525 62.138704 105.988016 62.478297 104.503498 62.817890 103.513819 63.157483 103.788730 63.497075 110.551536 63.836668 103.128944 64.176261 100.599764 64.515854 98.180549 64.855447 91.692654 65.195040 90.153153 65.534633 88.366233 65.874226 86.056982 66.213818 93.534557 66.553411 86.936697 66.893004 81.685900 67.232597 84.654937 67.572190 82.538124 67.911783 94.661691 68.251376 82.015793 68.590969 82.208231 68.930561 80.833677 69.270154 72.366424 69.609747 75.225496 69.949340 78.936792 70.288933 82.428160 70.628526 87.898885 70.968119 91.665163 71.307712 82.758053 71.647304 75.362952 71.986897 71.844093 72.326490 73.493558 72.666083 73.218647 73.005676 80.063927 73.345269 83.830205 73.684862 76.600050 74.024455 72.146495 74.364047 79.898980 74.703640 70.332084 75.043233 78.496935 75.382826 78.661881 75.722419 66.318386 76.062012 76.545068 76.401605 68.957530 76.741198 75.830300 77.080790 64.723903 77.420383 83.555294 77.759976 71.679147 78.099569 55.321953 78.439162 66.153439 78.778755 66.510823 79.118348 62.524616 79.457941 51.308255 79.797533 51.225782 80.137126 51.170800 80.476719 51.198291 80.816312 59.583071 81.155905 50.456032 81.495498 55.047042 81.835091 55.569373 82.174683 47.899361 82.514276 55.816793 82.853869 51.170800 83.193462 44.298029 83.533055 44.298029 83.872648 44.270538 84.212241 47.706923 84.551834 44.353011 84.891426 47.816888 85.231019 45.974985 85.570612 53.397577 85.910205 62.799527 86.249798 51.748112 86.589391 51.308255 86.928984 50.016174 87.268577 50.291085 87.608169 51.995532 87.947762 59.280669 88.287355 47.816888 88.626948 46.002476 88.966541 46.057459 89.306134 51.033344 89.645727 44.270538 89.985320 46.084950 90.324912 46.139932 90.664505 50.813416 91.004098 43.610752 91.343691 52.352916 91.683284 54.469730 92.022877 51.005853 92.362470 45.040289 92.702063 46.442334 93.041655 51.170800 93.381248 48.751585 93.720841 39.432108 94.060434 54.882096 94.400027 50.895889 94.739620 45.452655 95.079213 39.459599 95.418806 37.370277 95.758398 54.442238 96.097991 44.737887 96.437584 42.153725 96.777177 40.861644 97.116770 40.944117 97.456363 40.421787 97.795956 43.528279 98.135549 41.274010 98.475141 33.768945 98.814734 35.033535 99.154327 36.765473 99.493920 44.407994 99.833513 44.435485 100.173106 50.840907 100.512699 43.280859 100.852292 37.892607 101.191884 35.913249 101.531477 29.645283 101.871070 32.779266 102.210663 28.078291 102.550256 28.215747 102.889849 29.452845 103.229442 23.432298 103.569035 24.559433 103.908627 30.250087 104.248220 20.188351 104.587813 21.865307 104.927406 23.377316 105.266999 27.885854 105.606592 32.641811 105.946185 20.793155 106.285778 16.834439 106.625370 20.435770 106.964963 22.800003 107.304556 18.621359 107.644149 29.397863 107.983742 31.734605 108.323335 22.909968 108.662928 38.167518 109.002520 50.785925 109.342113 42.043761 109.681706 36.820455 110.021299 20.710681 110.360892 21.013083 110.700485 22.167709 111.040078 16.806948 111.379671 22.497602 111.719263 28.215747 112.058856 24.614415 112.398449 18.703832 112.738042 27.033630 113.077635 33.768945 113.417228 24.284522 113.756821 31.624641 114.096414 37.975081 114.436006 41.906305 114.775599 36.353107 115.115192 26.483808 115.454785 31.899551 115.794378 28.133273 116.133971 22.525093 116.473564 16.779457 116.813157 28.545640 117.152749 22.772512 117.492342 21.920289 117.831935 21.617887 118.171528 19.253654 118.511121 21.590396 118.850714 10.786401 119.190307 21.452940 119.529900 9.934177 119.869492 9.906686 120.209085 14.002857 120.548678 22.882477 120.888271 21.590396 121.227864 18.786306 121.567457 12.105973 121.907050 17.686662 122.246643 19.391109 122.586235 21.397958 122.925828 9.796722 123.265421 25.301692 123.605014 21.507923 123.944607 21.975271 124.284200 23.074914 124.623793 15.927233 124.963386 13.398054 125.302978 18.099029 125.642571 18.538886 125.982164 16.009706 126.321757 25.988969 126.661350 15.102501 127.000943 18.099029 127.340536 9.934177 127.680129 13.453036 128.019721 15.542358 128.359314 19.748493 128.698907 22.167709 129.038500 21.068065 129.378093 11.803571 129.717686 9.796722 130.057279 10.071633 130.396872 19.995913 130.736464 22.277673 131.076057 27.665925 131.415650 11.996008 131.755243 21.315485 132.094836 9.989159 132.434429 13.617982 132.774022 30.909873 133.113614 15.212465 133.453207 24.779361 133.792800 20.875628 134.132393 15.872251 134.471986 9.906686 134.811579 16.147162 135.151172 9.934177 135.490765 11.611133 135.830357 9.879195 136.169950 11.748589 136.509543 13.727947 136.849136 9.769231 137.188729 13.480527 137.528322 22.057744 137.867915 27.775889 138.207508 34.676151 138.547100 29.177934 138.886693 32.366900 139.226286 28.848041 139.565879 16.312108 139.905472 9.824213 140.245065 13.727947 140.584658 24.009611 140.924251 21.865307 141.263843 13.755438 141.603436 14.910063 141.943029 19.363618 142.282622 33.741454 142.622215 37.590205 142.961808 23.982120 143.301401 23.734700 143.640994 12.573321 143.980586 13.563000 144.320179 9.961668 144.659772 19.913440 144.999365 16.449564 145.338958 19.391109 145.678551 21.452940 146.018144 13.535509 146.357737 21.040574 146.697329 14.635152 147.036922 10.071633 147.376515 9.906686 147.716108 9.769231 148.055701 13.645473 148.395294 9.851704 148.734887 12.133464 149.074480 9.879195 149.414072 15.349920 149.753665 9.906686 150.093258 11.748589 150.432851 16.009706 150.772444 17.576698 151.112037 9.824213 151.451630 13.755438 151.791223 27.253559 152.130815 11.886044 152.470408 9.961668 152.810001 17.576698 153.149594 9.796722 153.489187 11.721098 153.828780 14.057840 154.168373 15.294938 154.507966 18.099029 154.847558 19.775984 155.187151 9.851704 155.526744 13.590491 155.866337 30.662453 156.205930 37.645188 156.545523 39.514581 156.885116 10.016651 157.224709 11.611133 157.564301 20.078386 157.903894 9.824213 158.243487 9.906686 158.583080 13.480527 158.922673 11.968517 159.262266 9.851704 159.601859 11.996008 159.941451 12.078482 160.281044 11.858553 160.620637 12.105973 160.960230 21.782833 161.299823 9.989159 161.639416 11.886044 161.979009 15.817269 162.318602 13.700455 162.658194 24.147066 162.997787 14.882572 163.337380 21.590396 163.676973 15.844760 164.016566 19.116199 164.356159 13.892893 164.695752 9.879195 165.035345 19.363618 165.374937 21.205521 165.714530 20.160860 166.054123 21.672869 166.393716 31.514676 166.733309 15.239956 167.072902 20.160860 167.412495 9.879195 167.752088 11.886044 168.091680 17.769136 168.431273 13.975366 168.770866 11.776080 169.110459 16.009706 169.450052 13.315580 169.789645 15.817269 170.129238 11.858553 170.468831 13.700455 170.808423 31.267257 171.148016 19.721002 171.487609 16.229635 171.827202 13.727947 172.166795 17.054367 172.506388 15.624831 172.845981 13.947875 173.185574 17.796627 173.525166 31.597150 173.864759 33.054177 174.204352 12.765759 174.543945 22.800003 174.883538 14.057840 175.223131 22.717530 175.562724 9.906686 175.902317 9.906686 176.241909 19.528565 176.581502 14.057840 176.921095 10.786401 177.260688 11.666115 177.600281 24.861835 177.939874 31.487185 178.279467 25.521621 178.619060 36.573035 178.958652 25.439147 179.298245 34.208802 179.637838 17.934082 179.977431 33.301597 180.317024 33.521525 180.656617 23.872156 180.996210 9.934177 181.335803 13.782929 181.675395 15.844760 182.014988 30.827399 182.354581 24.916817 182.694174 20.463262 183.033767 15.734795 183.373360 19.281145 183.712953 28.985497 184.052546 27.308541 184.392138 19.611038 184.731731 26.511299 185.071324 16.284617 185.410917 15.652322 185.750510 18.758814 186.090103 13.288089 186.429696 9.851704 186.769288 15.927233 187.108881 23.569754 187.448474 21.700360 187.788067 18.291466 188.127660 10.071633 188.467253 11.638624 188.806846 25.576603 189.146439 27.830871 189.486031 19.995913 189.825624 11.776080 190.165217 21.672869 190.504810 33.823927 190.844403 24.476959 191.183996 14.085331 191.523589 21.315485 191.863182 32.009516 192.202774 22.277673 192.542367 27.748398 192.881960 21.590396 193.221553 19.803476 193.561146 9.961668 193.900739 17.824118 194.240332 15.432394 194.579925 19.748493 194.919517 21.947780 195.259110 22.470110 195.598703 30.772417 195.938296 31.432203 196.277889 21.315485 196.617482 20.243333 196.957075 15.844760 197.296668 18.593868 197.636260 23.679718 197.975853 23.212370 198.315446 17.686662 198.655039 17.906591 198.994632 14.222786 199.334225 13.837911 199.673818 14.030348 200.013411 33.906400 200.353003 19.501074 200.692596 23.844665 201.032189 30.305069 201.371782 17.219314 201.711375 15.707304 202.050968 13.700455 202.390561 19.198672 202.730154 16.834439 203.069746 9.906686 203.409339 17.466734 203.748932 11.583642 204.088525 11.776080 204.428118 15.514867 204.767711 31.707114 205.107304 11.748589 205.446897 17.411751 205.786489 9.906686 206.126082 13.782929 206.465675 15.872251 206.805268 23.982120 207.144861 19.858458 207.484454 23.239861 207.824047 29.727756 208.163640 19.748493 208.503232 9.851704 208.842825 17.521716 209.182418 17.961573 209.522011 15.679813 209.861604 23.624736 210.201197 15.982215 210.540790 9.989159 210.880382 9.989159 211.219975 31.184783 211.559568 32.806757 211.899161 12.160955 212.238754 23.459789 212.578347 19.666020 212.917940 14.250277 213.257533 18.236484 213.597125 11.831062 213.936718 17.164332 214.276311 9.769231 214.615904 17.659171 214.955497 14.195295 215.295090 10.209088 215.634683 10.099124 215.974276 18.071537 216.313868 17.631680 216.653461 10.209088 216.993054 13.865402 217.332647 17.769136 217.672240 15.597340 218.011833 19.281145 218.351426 9.824213 218.691019 13.535509 219.030611 13.782929 219.370204 19.198672 219.709797 24.834344 220.049390 17.961573 220.388983 21.645378 220.728576 20.243333 221.068169 14.277768 221.407762 12.215937 221.747354 18.154011 222.086947 17.411751 222.426540 18.016555 222.766133 14.057840 223.105726 16.999385 223.445319 27.116103 223.784912 11.913535 224.124505 26.896175 224.464097 21.068065 224.803690 13.892893 225.143283 15.954724 225.482876 19.721002 225.822469 22.470110 226.162062 18.126520 226.501655 13.617982 226.841248 9.879195 227.180840 9.906686 227.520433 9.879195 227.860026 12.050991 228.199619 18.154011 228.539212 11.693606 228.878805 15.542358 229.218398 13.837911 229.557991 13.672964 229.897583 20.985592 230.237176 9.824213 230.576769 18.016555 230.916362 9.769231 231.255955 19.528565 231.595548 31.707114 231.935141 26.676246 232.274734 18.896270 232.614326 23.597245 232.953919 25.659076 233.293512 23.157388 233.633105 14.002857 233.972698 10.016651 234.312291 11.693606 234.651884 10.264070 234.991477 23.652227 235.331069 15.624831 235.670662 9.989159 236.010255 9.879195 236.349848 16.119671 236.689441 17.796627 237.029034 14.250277 237.368627 14.057840 237.708219 15.734795 238.047812 9.851704 238.387405 11.803571 238.726998 17.219314 239.066591 18.373939 239.406184 22.992441 239.745777 9.906686 240.085370 15.789778 240.424962 21.865307 240.764555 15.075010 241.104148 9.879195 241.443741 15.404903 241.783334 25.796531 242.122927 26.098933 242.462520 22.800003 242.802113 28.628113 243.141705 12.958196 243.481298 17.796627 243.820891 30.140122 244.160484 32.476864 244.500077 39.707019 244.839670 45.837530 245.179263 41.768850 245.518856 23.679718 245.858448 23.762191 246.198041 25.851514 246.537634 27.748398 246.877227 29.205425 247.216820 11.061312 247.556413 17.521716 247.896006 15.982215 248.235599 29.177934 248.575191 26.236389 248.914784 17.714153 249.254377 13.837911 249.593970 15.817269 249.933563 9.961668 250.273156 12.050991 250.612749 13.975366 250.952342 30.002667 251.291934 29.865211 251.631527 10.071633 251.971120 13.508018 252.310713 26.676246 252.650306 14.992536 252.989899 16.889421 253.329492 13.975366 253.669085 19.968422 254.008677 18.483904 254.348270 33.549016 254.687863 55.706828 255.027456 32.504355 255.367049 22.497602 255.706642 23.569754 256.046235 21.645378 256.385828 15.294938 256.725420 22.222691 257.065013 15.872251 257.404606 23.212370 257.744199 16.064688 258.083792 14.030348 258.423385 11.858553 258.762978 9.824213 259.102571 15.652322 259.442163 14.195295 259.781756 9.989159 260.121349 13.782929 260.460942 9.879195 260.800535 9.934177 261.140128 11.666115 261.479721 13.645473 261.819314 11.666115 262.158906 15.707304 262.498499 9.824213 262.838092 20.078386 263.177685 9.961668 263.517278 11.886044 263.856871 11.941026 264.196464 9.961668 264.536056 9.796722 264.875649 9.769231 265.215242 9.906686 265.554835 11.776080 265.894428 18.731323 266.234021 11.776080 266.573614 13.892893 266.913207 22.030253 267.252799 17.796627 267.592392 13.755438 267.931985 17.989064 268.271578 9.989159 268.611171 15.872251 268.950764 15.459885 269.290357 23.184879 269.629950 15.899742 269.969542 10.126615 270.309135 26.841192 270.648728 26.456317 270.988321 19.143690 271.327914 17.301787 271.667507 11.886044 272.007100 9.769231 272.346693 14.030348 272.686285 22.002762 273.025878 20.600717 273.365471 9.989159 273.705064 9.879195 274.044657 14.332750 274.384250 18.263975 274.723843 17.686662 275.063436 20.985592 275.403028 13.755438 275.742621 9.961668 276.082214 9.934177 276.421807 13.645473 276.761400 14.250277 277.100993 13.535509 277.440586 11.693606 277.780179 16.037197 278.119771 34.428731 278.459364 24.641906 278.798957 31.899551 279.138550 32.999195 279.478143 19.721002 279.817736 11.858553 280.157329 11.941026 280.496922 13.782929 280.836514 21.425449 281.176107 17.741644 281.515700 21.975271 281.855293 29.920194 282.194886 10.099124 282.534479 18.401430 282.874072 30.387542 283.213665 21.920289 283.553257 10.071633 283.892850 10.099124 284.232443 22.167709 284.572036 19.473583 284.911629 43.775699 285.251222 9.851704 285.590815 15.927233 285.930408 9.961668 286.270000 9.824213 286.609593 14.057840 286.949186 11.941026 287.288779 16.339599 287.628372 15.817269 287.967965 29.370372 288.307558 19.556056 288.647150 25.604094 288.986743 11.968517 289.326336 12.023499 289.665929 11.583642 290.005522 13.480527 290.345115 16.229635 290.684708 13.590491 291.024301 15.734795 291.363893 19.391109 291.703486 25.054272 292.043079 37.397768 292.382672 20.930610 292.722265 15.569849 293.061858 9.934177 293.401451 15.652322 293.741044 11.858553 294.080636 11.528660 294.420229 17.191823 294.759822 23.707209 295.099415 10.044142 295.439008 12.023499 295.778601 27.968327 296.118194 23.514772 296.457787 11.913535 296.797379 13.920384 297.136972 11.858553 297.476565 14.305259 297.816158 9.879195 298.155751 17.686662 298.495344 19.940931 298.834937 18.071537 299.174530 26.951157 299.514122 23.102405 299.853715 31.212274 300.193308 33.054177 300.532901 28.738077 300.872494 15.954724 301.212087 14.085331 301.551680 12.188446 301.891273 13.920384 302.230865 15.872251 302.570458 25.961478 302.910051 20.023404 303.249644 11.501169 303.589237 13.975366 303.928830 21.617887 304.268423 10.181597 304.608016 14.002857 304.947608 15.899742 305.287201 11.886044 305.626794 13.425545 305.966387 21.233012 306.305980 11.638624 306.645573 9.906686 306.985166 10.071633 307.324759 12.078482 307.664351 9.934177 308.003944 16.312108 308.343537 36.765473 308.683130 14.030348 309.022723 11.748589 309.362316 13.672964 309.701909 23.597245 310.041502 20.655699 310.381094 13.288089 310.720687 29.370372 311.060280 45.370181 311.399873 26.373844 311.739466 12.215937 312.079059 9.796722 312.418652 15.267447 312.758245 17.851609 313.097837 9.961668 313.437430 15.459885 313.777023 11.968517 314.116616 17.769136 314.456209 21.150539 314.795802 11.803571 315.135395 11.913535 315.474987 15.432394 315.814580 19.748493 316.154173 27.830871 316.493766 13.205616 316.833359 17.521716 317.172952 10.016651 317.512545 10.181597 317.852138 13.260598 318.191730 17.686662 318.531323 19.638529 318.870916 18.016555 319.210509 33.466543 319.550102 15.927233 319.889695 40.531751 320.229288 17.356769 320.568881 9.879195 320.908473 13.755438 321.248066 13.343071 321.587659 17.741644 321.927252 13.700455 322.266845 9.879195 322.606438 16.009706 322.946031 17.989064 323.285624 26.868684 323.625216 23.294843 323.964809 15.184974 324.304402 19.693511 324.643995 21.920289 324.983588 27.143594 325.323181 18.978743 325.662774 17.521716 326.002367 16.037197 326.341959 14.580170 326.681552 14.030348 327.021145 19.775984 327.360738 15.954724 327.700331 12.133464 328.039924 9.824213 328.379517 15.844760 328.719110 17.961573 329.058702 13.672964 329.398295 15.514867 329.737888 20.820646 330.077481 29.782738 330.417074 23.872156 330.756667 13.837911 331.096260 11.968517 331.435853 11.996008 331.775445 15.679813 332.115038 9.851704 332.454631 11.748589 332.794224 11.831062 333.133817 17.879100 333.473410 23.817173 333.813003 21.700360 334.152596 11.666115 334.492188 11.913535 334.831781 17.934082 335.171374 26.071442 335.510967 19.226163 335.850560 15.844760 336.190153 20.545735 336.529746 19.885949 336.869339 16.119671 337.208931 16.037197 337.548524 15.762287 337.888117 10.044142 338.227710 21.782833 338.567303 10.016651 338.906896 14.195295 339.246489 16.064688 339.586082 15.789778 339.925674 31.652132 340.265267 21.617887 340.604860 16.119671 340.944453 15.432394 341.284046 15.982215 341.623639 17.549207 341.963232 25.906496 342.302824 10.016651 342.642417 15.844760 342.982010 9.906686 343.321603 16.174653 343.661196 9.851704 344.000789 16.092180 344.340382 17.521716 344.679975 15.294938 345.019567 10.016651 345.359160 12.105973 345.698753 16.037197 346.038346 9.879195 346.377939 13.865402 346.717532 22.937459 347.057125 13.425545 347.396718 16.174653 347.736310 9.906686 348.075903 17.741644 348.415496 13.590491 348.755089 14.525188 349.094682 21.370467 349.434275 27.940836 349.773868 11.776080 350.113461 19.446092 350.453053 25.219219 350.792646 11.941026 351.132239 13.370562 351.471832 18.071537 351.811425 20.133369 352.151018 11.886044 352.490611 10.016651 352.830204 15.597340 353.169796 21.562905 353.509389 25.521621 353.848982 9.851704 354.188575 13.700455 354.528168 15.267447 354.867761 9.769231 355.207354 15.872251 355.546947 17.549207 355.886539 13.837911 356.226132 13.892893 356.565725 15.817269 356.905318 12.655794 357.244911 15.020027 357.584504 13.645473 357.924097 11.528660 358.263690 17.439243 358.603282 17.576698 358.942875 13.535509 359.282468 9.769231 359.622061 18.126520 359.961654 21.947780 360.301247 23.377316 360.640840 19.088707 360.980433 19.968422 361.320025 9.879195 361.659618 15.844760 361.999211 17.466734 362.338804 12.023499 362.678397 11.968517 363.017990 10.346543 363.357583 15.789778 363.697176 14.552679 364.036768 18.044046 364.376361 19.666020 364.715954 17.384260 365.055547 24.999290 365.395140 19.198672 365.734733 37.480241 366.074326 33.054177 366.413918 32.146971 366.753511 13.178125 367.093104 17.659171 367.432697 15.844760 367.772290 14.057840 368.111883 17.686662 368.451476 14.690134 368.791069 21.727851 369.130661 15.872251 369.470254 22.937459 369.809847 14.910063 370.149440 10.126615 370.489033 19.473583 370.828626 23.212370 371.168219 46.772227 371.507812 29.947685 371.847404 25.604094 372.186997 28.655604 372.526590 23.019932 372.866183 14.057840 373.205776 9.989159 373.545369 15.872251 373.884962 11.913535 374.224555 11.886044 374.564147 35.143499 374.903740 33.521525 375.243333 26.181407 375.582926 32.284427 375.922519 32.311918 376.262112 15.569849 376.601705 28.435675 376.941298 23.789682 377.280890 11.831062 377.620483 18.373939 377.960076 16.257126 378.299669 30.552488 378.639262 18.621359 378.978855 11.446187 379.318448 15.487376 379.658041 13.480527 379.997633 21.150539 380.337226 12.078482 380.676819 18.099029 381.016412 26.181407 381.356005 29.232917 381.695598 34.868588 382.035191 18.071537 382.374784 15.459885 382.714376 17.219314 383.053969 23.212370 383.393562 20.820646 383.733155 19.775984 384.072748 24.531942 384.412341 11.638624 384.751934 18.731323 385.091527 21.865307 385.431119 17.274296 385.770712 11.996008 386.110305 27.226068 386.449898 15.624831 386.789491 25.439147 387.129084 21.260503 387.468677 17.961573 387.808270 21.727851 388.147862 23.707209 388.487455 27.418505 388.827048 19.501074 389.166641 13.837911 389.506234 13.755438 389.845827 10.099124 390.185420 16.339599 390.525013 11.913535 390.864605 30.579980 391.204198 29.177934 391.543791 32.696793 391.883384 24.037102 392.222977 9.824213 392.562570 15.954724 392.902163 15.322429 393.241755 22.140218 393.581348 11.803571 393.920941 9.824213 394.260534 23.844665 394.600127 25.466638 394.939720 23.652227 395.279313 13.672964 395.618906 15.294938 395.958498 26.511299 396.298091 13.672964 396.637684 14.057840 396.977277 14.057840 397.316870 20.325806 397.656463 15.899742 397.996056 16.999385 398.335649 9.879195 398.675241 9.961668 399.014834 9.879195 399.354427 11.748589 399.694020 9.769231 400.033613 10.016651 400.373206 9.879195 400.712799 15.844760 401.052392 13.782929 401.391984 21.535414 401.731577 11.996008 402.071170 19.556056 402.410763 27.693416 402.750356 21.040574 403.089949 20.545735 403.429542 14.057840 403.769135 21.452940 404.108727 29.287899 404.448320 17.439243 404.787913 9.989159 405.127506 9.906686 405.467099 12.078482 405.806692 29.892703 406.146285 14.057840 406.485878 19.693511 406.825470 9.989159 407.165063 15.707304 407.504656 9.906686 407.844249 13.425545 408.183842 13.810420 408.523435 9.961668 408.863028 15.734795 409.202621 9.769231 409.542213 17.906591 409.881806 21.645378 410.221399 38.359956 410.560992 33.219123 410.900585 27.006139 411.240178 13.837911 411.579771 19.940931 411.919364 20.408279 412.258956 23.624736 412.598549 19.995913 412.938142 19.363618 413.277735 12.023499 413.617328 15.597340 413.956921 28.133273 414.296514 30.195104 414.636107 27.803380 414.975699 25.549112 415.315292 13.755438 415.654885 15.652322 415.994478 13.810420 416.334071 18.044046 416.673664 9.906686 417.013257 13.700455 417.352850 21.782833 417.692442 16.257126 418.032035 23.377316 418.371628 17.576698 418.711221 20.050895 419.050814 11.776080 419.390407 28.380693 419.730000 9.934177 420.069592 11.941026 420.409185 18.236484 420.748778 17.301787 421.088371 15.679813 421.427964 21.865307 421.767557 29.892703 422.107150 19.226163 422.446743 15.707304 422.786335 17.301787 423.125928 28.050800 423.465521 25.796531 423.805114 27.995818 424.144707 21.782833 424.484300 19.638529 424.823893 13.782929 425.163486 11.941026 425.503078 17.411751 425.842671 19.061216 426.182264 40.751680 426.521857 29.947685 426.861450 24.257031 427.201043 27.720907 427.540636 17.576698 427.880229 17.576698 428.219821 17.796627 428.559414 12.023499 428.899007 18.181502 429.238600 29.287899 429.578193 29.480336 429.917786 13.370562 430.257379 9.851704 430.596972 11.831062 430.936564 20.215842 431.276157 31.459694 431.615750 19.556056 431.955343 11.776080 432.294936 11.996008 432.634529 13.700455 432.974122 9.824213 433.313715 15.844760 433.653307 16.064688 433.992900 19.775984 434.332493 19.583547 434.672086 18.291466 435.011679 9.906686 435.351272 17.906591 435.690865 11.776080 436.030458 15.707304 436.370050 19.473583 436.709643 9.796722 437.049236 9.824213 437.388829 11.831062 437.728422 11.858553 438.068015 13.563000 438.407608 15.569849 438.747201 24.916817 439.086793 27.940836 439.426386 22.195200 439.765979 23.047423 440.105572 30.799908 440.445165 18.154011 440.784758 19.775984 441.124351 13.782929 441.463944 23.459789 441.803536 15.844760 442.143129 22.387637 442.482722 15.789778 442.822315 12.050991 443.161908 12.050991 443.501501 35.555865 443.841094 22.525093 444.180686 29.315390 444.520279 26.483808 444.859872 19.281145 445.199465 16.284617 445.539058 20.105877 445.878651 17.631680 446.218244 11.803571 446.557837 15.542358 446.897429 9.906686 447.237022 11.803571 447.576615 13.590491 447.916208 19.336127 448.255801 24.257031 448.595394 25.411656 448.934987 31.762096 449.274580 20.738172 449.614172 19.418600 449.953765 17.164332 450.293358 20.463262 450.632951 9.769231 450.972544 9.796722 451.312137 22.140218 451.651730 19.198672 451.991323 15.569849 452.330915 18.703832 452.670508 26.291371 453.010101 13.755438 453.349694 11.968517 453.689287 19.638529 454.028880 16.312108 454.368473 17.411751 454.708066 15.075010 455.047658 13.563000 455.387251 12.050991 455.726844 13.947875 456.066437 19.666020 456.406030 13.535509 456.745623 17.466734 457.085216 14.167804 457.424809 16.174653 457.764401 13.645473 458.103994 17.769136 458.443587 15.789778 458.783180 21.562905 459.122773 32.779266 459.462366 16.284617 459.801959 19.088707 460.141552 17.576698 460.481144 24.724379 460.820737 27.116103 461.160330 19.528565 461.499923 29.562810 461.839516 23.982120 462.179109 18.044046 462.518702 16.092180 462.858295 14.360241 463.197887 9.824213 463.537480 13.810420 463.877073 9.796722 464.216666 17.356769 464.556259 14.112822 464.895852 23.074914 465.235445 13.975366 465.575038 20.408279 465.914630 25.109254 466.254223 24.834344 466.593816 22.085235 466.933409 19.391109 467.273002 15.459885 467.612595 15.927233 467.952188 11.776080 468.291781 13.810420 468.631373 11.996008 468.970966 13.892893 469.310559 9.961668 469.650152 15.707304 469.989745 21.617887 470.329338 11.886044 470.668931 9.989159 471.008523 9.906686 471.348116 17.906591 471.687709 15.624831 472.027302 19.885949 472.366895 15.982215 472.706488 11.776080 473.046081 26.236389 473.385674 9.769231 473.725266 13.920384 474.064859 26.758719 474.404452 13.590491 474.744045 11.776080 475.083638 11.583642 475.423231 15.844760 475.762824 20.545735 476.102417 18.896270 476.442009 23.267352 476.781602 45.150253 477.121195 25.384165 477.460788 11.913535 477.800381 13.563000 478.139974 10.044142 478.479567 14.250277 478.819160 18.373939 479.158752 12.518339 479.498345 9.934177 479.837938 24.037102 480.177531 23.514772 480.517124 19.418600 480.856717 28.958006 481.196310 11.803571 481.535903 9.824213 481.875495 17.219314 482.215088 15.707304 482.554681 19.528565 482.894274 20.545735 483.233867 30.524997 483.573460 17.686662 483.913053 15.762287 484.252646 19.721002 484.592238 21.892798 484.931831 9.796722 485.271424 11.748589 485.611017 19.556056 485.950610 23.707209 486.290203 15.707304 486.629796 9.906686 486.969389 9.851704 487.308981 11.968517 487.648574 13.755438 487.988167 23.734700 488.327760 11.941026 488.667353 9.824213 489.006946 13.700455 489.346539 19.528565 489.686132 14.222786 490.025724 15.597340 490.365317 19.418600 490.704910 13.727947 491.044503 17.136841 491.384096 23.377316 491.723689 10.016651 492.063282 17.934082 492.402875 13.453036 492.742467 11.913535 493.082060 14.222786 493.421653 14.167804 493.761246 13.453036 494.100839 17.851609 494.440432 20.133369 494.780025 18.181502 495.119618 11.638624 495.459210 15.267447 495.798803 13.700455 496.138396 28.023309 496.477989 17.714153 496.817582 16.202144 497.157175 10.016651 497.496768 24.394486 497.836360 16.119671 498.175953 10.181597 498.515546 15.954724 498.855139 23.322334 499.194732 9.879195 499.534325 13.920384 499.873918 15.652322 500.213511 11.858553 500.553103 23.074914 500.892696 33.741454 501.232289 25.246710 501.571882 23.349825 501.911475 19.116199 502.251068 15.184974 502.590661 17.659171 502.930254 20.160860 503.269846 26.291371 503.609439 19.116199 503.949032 12.820741 504.288625 11.803571 504.628218 11.803571 504.967811 10.016651 505.307404 11.886044 505.646997 9.769231 505.986589 11.638624 506.326182 9.824213 506.665775 17.576698 507.005368 13.343071 507.344961 17.136841 507.684554 11.858553 508.024147 25.879005 508.363740 13.590491 508.703332 9.796722 509.042925 13.865402 509.382518 9.824213 509.722111 9.769231 510.061704 17.741644 510.401297 18.538886 510.740890 17.686662 511.080483 9.961668 511.420075 9.824213 511.759668 9.961668 512.099261 11.968517 512.438854 18.071537 512.778447 21.397958 513.118040 9.769231 513.457633 13.782929 513.797226 15.404903 514.136818 16.174653 514.476411 35.665830 514.816004 13.617982 515.155597 19.858458 515.495190 17.769136 515.834783 17.686662 516.174376 9.906686 516.513969 15.679813 516.853561 17.796627 517.193154 15.432394 517.532747 10.126615 517.872340 13.865402 518.211933 27.198577 518.551526 26.318862 518.891119 13.892893 519.230712 24.889326 519.570304 19.528565 519.909897 25.796531 520.249490 17.934082 520.589083 21.700360 520.928676 10.044142 521.268269 9.934177 521.607862 20.270824 521.947454 9.851704 522.287047 17.741644 522.626640 11.721098 522.966233 9.989159 523.305826 13.782929 523.645419 9.906686 523.985012 17.796627 524.324605 24.064593 524.664197 19.775984 525.003790 40.449278 525.343383 24.751870 525.682976 19.363618 526.022569 25.576603 526.362162 17.164332 526.701755 27.061121 527.041348 9.906686 527.380940 10.071633 527.720533 10.154106 528.060126 14.057840 528.399719 16.916912 528.739312 12.023499 529.078905 18.016555 529.418498 21.700360 529.758091 14.745117 530.097683 19.775984 530.437276 15.679813 530.776869 21.205521 531.116462 10.099124 531.456055 17.411751 531.795648 29.507827 532.135241 17.356769 532.474834 10.126615 532.814426 11.693606 533.154019 17.769136 533.493612 18.401430 533.833205 15.734795 534.172798 15.652322 534.512391 16.064688 534.851984 21.590396 535.191577 15.707304 535.531169 27.253559 535.870762 12.600812 536.210355 14.635152 536.549948 19.501074 536.889541 13.480527 537.229134 19.775984 537.568727 17.026876 537.908320 11.748589 538.247912 20.270824 538.587505 12.160955 538.927098 31.294748 539.266691 32.751775 539.606284 19.226163 539.945877 21.315485 540.285470 13.343071 540.625063 17.384260 540.964655 19.803476 541.304248 9.906686 541.643841 17.109350 541.983434 15.487376 542.323027 11.968517 542.662620 13.700455 543.002213 11.858553 543.341806 24.284522 543.681398 18.483904 544.020991 18.978743 544.360584 13.920384 544.700177 9.961668 545.039770 9.934177 545.379363 9.851704 545.718956 10.071633 546.058549 14.002857 546.398141 27.858362 546.737734 13.645473 547.077327 19.913440 547.416920 19.611038 547.756513 30.909873 548.096106 17.961573 548.435699 23.762191 548.775291 25.439147 549.114884 21.947780 549.454477 17.934082 549.794070 15.899742 550.133663 18.291466 550.473256 17.824118 550.812849 26.373844 551.152442 20.050895 551.492034 18.236484 551.831627 25.439147 552.171220 10.016651 552.510813 22.800003 552.850406 34.896079 553.189999 30.662453 553.529592 35.280955 553.869185 29.150443 554.208777 24.669397 554.548370 30.717435 554.887963 21.865307 555.227556 30.057649 555.567149 27.583452 555.906742 13.782929 556.246335 17.329278 556.585928 11.941026 556.925520 13.617982 557.265113 16.202144 557.604706 17.549207 557.944299 15.459885 558.283892 16.037197 558.623485 29.177934 558.963078 23.459789 559.302671 9.796722 559.642263 13.205616 559.981856 15.404903 560.321449 9.879195 560.661042 12.188446 561.000635 15.762287 561.340228 15.679813 561.679821 17.274296 562.019414 17.411751 562.359006 25.686567 562.698599 17.989064 563.038192 11.968517 563.377785 29.617792 563.717378 29.892703 564.056971 17.851609 564.396564 15.734795 564.736157 19.226163 565.075749 13.920384 565.415342 17.466734 565.754935 23.294843 566.094528 16.944403 566.434121 14.827590 566.773714 17.274296 567.113307 22.964950 567.452900 33.081668 567.792492 15.734795 568.132085 12.270919 568.471678 31.734605 568.811271 19.940931 569.150864 17.604189 569.490457 17.934082 569.830050 9.961668 570.169643 14.112822 570.509235 17.109350 570.848828 10.099124 571.188421 9.934177 571.528014 10.099124 571.867607 9.934177 572.207200 14.140313 572.546793 23.872156 572.886386 20.243333 573.225978 13.645473 573.565571 16.587019 573.905164 23.762191 574.244757 11.831062 574.584350 13.892893 574.923943 10.099124 575.263536 23.404807 575.603128 15.322429 575.942721 9.879195 576.282314 28.050800 576.621907 23.597245 576.961500 13.892893 577.301093 11.693606 577.640686 15.817269 577.980279 12.105973 578.319871 13.837911 578.659464 22.030253 578.999057 23.872156 579.338650 9.906686 579.678243 15.734795 580.017836 12.105973 580.357429 20.050895 580.697022 31.487185 581.036614 21.672869 581.376207 9.934177 581.715800 9.989159 582.055393 9.906686 582.394986 11.583642 582.734579 12.243428 583.074172 15.267447 583.413765 21.727851 583.753357 25.494129 584.092950 11.666115 584.432543 13.508018 584.772136 13.865402 585.111729 9.851704 585.451322 21.562905 585.790915 27.775889 586.130508 9.851704 586.470100 17.741644 586.809693 23.707209 587.149286 25.494129 587.488879 34.786115 587.828472 45.397673 588.168065 28.078291 588.507658 33.521525 588.847251 40.531751 589.186843 18.401430 589.526436 13.013178 589.866029 13.920384 590.205622 13.920384 590.545215 24.147066 590.884808 17.851609 591.224401 21.095556 591.563994 13.837911 591.903586 17.769136 592.243179 23.074914 592.582772 25.109254 592.922365 29.095461 593.261958 13.563000 593.601551 15.542358 593.941144 9.879195 594.280737 18.071537 594.620329 18.401430 594.959922 15.404903 595.299515 18.099029 595.639108 17.521716 595.978701 14.030348 596.318294 15.927233 596.657887 12.023499 596.997480 19.913440 597.337072 13.892893 597.676665 15.597340 598.016258 23.542263 598.355851 15.899742 598.695444 30.579980 599.035037 17.714153 599.374630 9.906686 599.714222 19.968422 600.053815 11.831062 600.393408 23.542263 600.733001 9.989159 601.072594 22.305164 601.412187 18.373939 601.751780 14.332750 602.091373 15.762287 602.430965 27.693416 602.770558 14.745117 603.110151 11.721098 603.449744 9.879195 603.789337 13.590491 604.128930 20.848137 604.468523 14.140313 604.808116 13.837911 605.147708 11.693606 605.487301 20.215842 605.826894 25.851514 606.166487 23.982120 606.506080 22.140218 606.845673 20.133369 607.185266 9.824213 607.524859 15.157483 607.864451 15.982215 608.204044 25.301692 608.543637 18.923761 608.883230 12.188446 609.222823 14.222786 609.562416 16.064688 609.902009 21.672869 610.241602 23.679718 610.581194 13.947875 610.920787 19.556056 611.260380 25.164236 611.599973 32.311918 611.939566 37.810134 612.279159 25.879005 612.618752 16.037197 612.958345 13.892893 613.297937 9.989159 613.637530 13.672964 613.977123 10.071633 614.316716 13.782929 614.656309 21.865307 614.995902 13.508018 615.335495 20.683190 615.675088 22.387637 616.014680 15.514867 616.354273 21.480432 616.693866 19.638529 617.033459 13.782929 617.373052 25.851514 617.712645 17.631680 618.052238 13.975366 618.391831 9.906686 618.731423 20.188351 619.071016 14.277768 619.410609 12.518339 619.750202 17.521716 620.089795 9.851704 620.429388 9.906686 620.768981 9.796722 621.108574 15.597340 621.448166 25.494129 621.787759 15.817269 622.127352 9.961668 622.466945 23.184879 622.806538 19.885949 623.146131 13.672964 623.485724 14.222786 623.825317 9.879195 624.164909 9.934177 624.504502 18.099029 624.844095 19.858458 625.183688 13.315580 625.523281 9.879195 625.862874 19.775984 626.202467 14.057840 626.542059 9.879195 626.881652 13.672964 627.221245 30.140122 627.560838 30.854890 627.900431 35.748303 628.240024 15.322429 628.579617 9.989159 628.919210 11.831062 629.258802 17.274296 629.598395 23.322334 629.937988 15.707304 630.277581 21.370467 630.617174 13.975366 630.956767 22.580075 631.296360 9.824213 631.635953 9.769231 631.975545 9.796722 632.315138 17.851609 632.654731 22.277673 632.994324 18.868779 633.333917 11.666115 633.673510 19.391109 634.013103 11.996008 634.352696 17.494225 634.692288 27.473487 635.031881 12.325901 635.371474 10.071633 635.711067 9.906686 636.050660 15.597340 636.390253 17.466734 636.729846 12.188446 637.069439 16.422073 637.409031 16.119671 637.748624 12.380884 638.088217 13.563000 638.427810 21.892798 638.767403 35.858267 639.106996 25.686567 639.446589 25.191728 639.786182 39.404617 640.125774 16.834439 640.465367 11.721098 640.804960 31.982025 641.144553 12.078482 641.484146 10.319052 641.823739 11.666115 642.163332 11.968517 642.502925 17.631680 642.842517 11.693606 643.182110 13.398054 643.521703 19.803476 643.861296 29.040479 644.200889 29.810229 644.540482 36.298125 644.880075 9.851704 645.219668 11.693606 645.559260 25.329183 645.898853 13.727947 646.238446 23.487281 646.578039 20.298315 646.917632 12.023499 647.257225 9.879195 647.596818 23.789682 647.936411 17.274296 648.276003 13.947875 648.615596 26.071442 648.955189 18.154011 649.294782 11.831062 649.634375 13.480527 649.973968 26.813701 650.313561 11.803571 650.653153 13.563000 650.992746 15.597340 651.332339 17.796627 651.671932 11.638624 652.011525 22.387637 652.351118 9.851704 652.690711 12.023499 653.030304 25.796531 653.369896 21.617887 653.709489 17.411751 654.049082 30.854890 654.388675 29.755247 654.728268 32.174462 655.067861 15.679813 655.407454 12.738268 655.747047 16.779457 656.086639 20.738172 656.426232 11.666115 656.765825 15.487376 657.105418 15.514867 657.445011 9.796722 657.784604 9.824213 658.124197 9.824213 658.463790 9.769231 658.803382 9.824213 659.142975 9.851704 659.482568 13.672964 659.822161 9.879195 660.161754 14.140313 660.501347 16.504546 660.840940 9.824213 661.180533 14.167804 661.520125 13.645473 661.859718 9.879195 662.199311 9.824213 662.538904 17.549207 662.878497 33.301597 663.218090 14.415224 663.557683 14.002857 663.897276 14.332750 664.236868 9.824213 664.576461 13.920384 664.916054 15.487376 665.255647 27.116103 665.595240 25.988969 665.934833 22.745021 666.274426 26.511299 666.614019 22.002762 666.953611 13.672964 667.293204 21.480432 667.632797 27.665925 667.972390 13.975366 668.311983 11.528660 668.651576 19.336127 668.991169 9.989159 669.330762 10.016651 669.670354 17.741644 670.009947 23.652227 670.349540 9.934177 670.689133 9.769231 671.028726 17.796627 671.368319 17.989064 671.707912 18.291466 672.047505 27.033630 672.387097 27.336032 672.726690 42.538600 673.066283 29.122952 673.405876 11.611133 673.745469 13.645473 674.085062 11.886044 674.424655 13.672964 674.764248 9.851704 675.103840 20.188351 675.443433 26.181407 675.783026 26.511299 676.122619 25.549112 676.462212 19.473583 676.801805 11.831062 677.141398 13.947875 677.480990 11.666115 677.820583 9.961668 678.160176 15.377411 678.499769 21.810325 678.839362 22.442619 679.178955 27.033630 679.518548 23.514772 679.858141 18.401430 680.197733 20.050895 680.537326 13.837911 680.876919 11.583642 681.216512 13.700455 681.556105 15.624831 681.895698 22.745021 682.235291 15.349920 682.574884 22.552584 682.914476 17.879100 683.254069 18.841288 683.593662 23.569754 683.933255 16.037197 684.272848 15.982215 684.612441 15.294938 684.952034 13.975366 685.291627 22.140218 685.631219 20.738172 685.970812 12.545830 686.310405 10.346543 686.649998 19.968422 686.989591 17.329278 687.329184 11.583642 687.668777 21.755342 688.008370 13.920384 688.347962 11.941026 688.687555 14.140313 689.027148 9.879195 689.366741 15.982215 689.706334 34.428731 690.045927 15.267447 690.385520 19.748493 690.725113 13.810420 691.064705 9.824213 691.404298 23.679718 691.743891 24.641906 692.083484 27.858362 692.423077 12.463357" class="line reactive nofill" /></g></g><g class="titles"><text x="400.0" y="26" class="title plot_title">Fitness evolution</text><text x="427.0" y="580" class="title">Generations</text><text x="0" y="326.0" class="title" transform="rotate(-90 0.000000 300.000000)">Fitness</text></g><g transform="translate(74, 46)" class="plot overlay"><g class="series serie-0 color-0" /></g><g transform="translate(74, 46)" class="plot text-overlay"><g class="series serie-0 color-0" /></g><g transform="translate(74, 46)" class="plot tooltip-overlay"><g transform="translate(0 0)" style="opacity: 0" class="tooltip"><rect rx="0" ry="0" width="0" height="0" class="tooltip-box" /><g class="text" /></g></g></g></svg>