<?xml version='1.0' encoding='utf-8'?>
<svg xmlns:xlink="http://www.w3.org/1999/xlink" class="pygal-chart" id="chart-7a376912-769a-4227-b75e-1b50372df971" viewBox="0 0 800 600" xmlns="http://www.w3.org/2000/svg"><!--Generated with pygal 2.4.0 (etree) ©Kozea 2012-2016 on 2019-03-12--><!--http://pygal.org--><!--http://github.com/Kozea/pygal--><defs><style type="text/css">#chart-7a376912-769a-4227-b75e-1b50372df971{-webkit-user-select:none;-webkit-font-smoothing:antialiased;font-family:Consolas,"Liberation Mono",Menlo,Courier,monospace}#chart-7a376912-769a-4227-b75e-1b50372df971 .title{font-family:Consolas,"Liberation Mono",Menlo,Courier,monospace;font-size:16px}#chart-7a376912-769a-4227-b75e-1b50372df971 .legends .legend text{font-family:Consolas,"Liberation Mono",Menlo,Courier,monospace;font-size:14px}#chart-7a376912-769a-4227-b75e-1b50372df971 .axis text{font-family:Consolas,"Liberation Mono",Menlo,Courier,monospace;font-size:10px}#chart-7a376912-769a-4227-b75e-1b50372df971 .axis text.major{font-family:Consolas,"Liberation Mono",Menlo,Courier,monospace;font-size:10px}#chart-7a376912-769a-4227-b75e-1b50372df971 .text-overlay text.value{font-family:Consolas,"Liberation Mono",Menlo,Courier,monospace;font-size:16px}#chart-7a376912-769a-4227-b75e-1b50372df971 .text-overlay text.label{font-family:Consolas,"Liberation Mono",Menlo,Courier,monospace;font-size:10px}#chart-7a376912-769a-4227-b75e-1b50372df971 .tooltip{font-family:Consolas,"Liberation Mono",Menlo,Courier,monospace;font-size:14px}#chart-7a376912-769a-4227-b75e-1b50372df971 text.no_data{font-family:Consolas,"Liberation Mono",Menlo,Courier,monospace;font-size:64px}
#chart-7a376912-769a-4227-b75e-1b50372df971{background-color:rgba(249,249,249,1)}#chart-7a376912-769a-4227-b75e-1b50372df971 path,#chart-7a376912-769a-4227-b75e-1b50372df971 line,#chart-7a376912-769a-4227-b75e-1b50372df971 rect,#chart-7a376912-769a-4227-b75e-1b50372df971 circle{-webkit-transition:150ms;-moz-transition:150ms;transition:150ms}#chart-7a376912-769a-4227-b75e-1b50372df971 .graph &gt; .background{fill:rgba(249,249,249,1)}#chart-7a376912-769a-4227-b75e-1b50372df971 .plot &gt; .background{fill:rgba(255,255,255,1)}#chart-7a376912-769a-4227-b75e-1b50372df971 .graph{fill:rgba(0,0,0,.87)}#chart-7a376912-769a-4227-b75e-1b50372df971 text.no_data{fill:rgba(0,0,0,1)}#chart-7a376912-769a-4227-b75e-1b50372df971 .title{fill:rgba(0,0,0,1)}#chart-7a376912-769a-4227-b75e-1b50372df971 .legends .legend text{fill:rgba(0,0,0,.87)}#chart-7a376912-769a-4227-b75e-1b50372df971 .legends .legend:hover text{fill:rgba(0,0,0,1)}#chart-7a376912-769a-4227-b75e-1b50372df971 .axis .line{stroke:rgba(0,0,0,1)}#chart-7a376912-769a-4227-b75e-1b50372df971 .axis .guide.line{stroke:rgba(0,0,0,.54)}#chart-7a376912-769a-4227-b75e-1b50372df971 .axis .major.line{stroke:rgba(0,0,0,.87)}#chart-7a376912-769a-4227-b75e-1b50372df971 .axis text.major{fill:rgba(0,0,0,1)}#chart-7a376912-769a-4227-b75e-1b50372df971 .axis.y .guides:hover .guide.line,#chart-7a376912-769a-4227-b75e-1b50372df971 .line-graph .axis.x .guides:hover .guide.line,#chart-7a376912-769a-4227-b75e-1b50372df971 .stackedline-graph .axis.x .guides:hover .guide.line,#chart-7a376912-769a-4227-b75e-1b50372df971 .xy-graph .axis.x .guides:hover .guide.line{stroke:rgba(0,0,0,1)}#chart-7a376912-769a-4227-b75e-1b50372df971 .axis .guides:hover text{fill:rgba(0,0,0,1)}#chart-7a376912-769a-4227-b75e-1b50372df971 .reactive{fill-opacity:.7;stroke-opacity:.8}#chart-7a376912-769a-4227-b75e-1b50372df971 .ci{stroke:rgba(0,0,0,.87)}#chart-7a376912-769a-4227-b75e-1b50372df971 .reactive.active,#chart-7a376912-769a-4227-b75e-1b50372df971 .active .reactive{fill-opacity:.8;stroke-opacity:.9;stroke-width:4}#chart-7a376912-769a-4227-b75e-1b50372df971 .ci .reactive.active{stroke-width:1.5}#chart-7a376912-769a-4227-b75e-1b50372df971 .series text{fill:rgba(0,0,0,1)}#chart-7a376912-769a-4227-b75e-1b50372df971 .tooltip rect{fill:rgba(255,255,255,1);stroke:rgba(0,0,0,1);-webkit-transition:opacity 150ms;-moz-transition:opacity 150ms;transition:opacity 150ms}#chart-7a376912-769a-4227-b75e-1b50372df971 .tooltip .label{fill:rgba(0,0,0,.87)}#chart-7a376912-769a-4227-b75e-1b50372df971 .tooltip .label{fill:rgba(0,0,0,.87)}#chart-7a376912-769a-4227-b75e-1b50372df971 .tooltip .legend{font-size:.8em;fill:rgba(0,0,0,.54)}#chart-7a376912-769a-4227-b75e-1b50372df971 .tooltip .x_label{font-size:.6em;fill:rgba(0,0,0,1)}#chart-7a376912-769a-4227-b75e-1b50372df971 .tooltip .xlink{font-size:.5em;text-decoration:underline}#chart-7a376912-769a-4227-b75e-1b50372df971 .tooltip .value{font-size:1.5em}#chart-7a376912-769a-4227-b75e-1b50372df971 .bound{font-size:.5em}#chart-7a376912-769a-4227-b75e-1b50372df971 .max-value{font-size:.75em;fill:rgba(0,0,0,.54)}#chart-7a376912-769a-4227-b75e-1b50372df971 .map-element{fill:rgba(255,255,255,1);stroke:rgba(0,0,0,.54) !important}#chart-7a376912-769a-4227-b75e-1b50372df971 .map-element .reactive{fill-opacity:inherit;stroke-opacity:inherit}#chart-7a376912-769a-4227-b75e-1b50372df971 .color-0,#chart-7a376912-769a-4227-b75e-1b50372df971 .color-0 a:visited{stroke:#F44336;fill:#F44336}#chart-7a376912-769a-4227-b75e-1b50372df971 .text-overlay .color-0 text{fill:black}
#chart-7a376912-769a-4227-b75e-1b50372df971 text.no_data{text-anchor:middle}#chart-7a376912-769a-4227-b75e-1b50372df971 .guide.line{fill:none}#chart-7a376912-769a-4227-b75e-1b50372df971 .centered{text-anchor:middle}#chart-7a376912-769a-4227-b75e-1b50372df971 .title{text-anchor:middle}#chart-7a376912-769a-4227-b75e-1b50372df971 .legends .legend text{fill-opacity:1}#chart-7a376912-769a-4227-b75e-1b50372df971 .axis.x text{text-anchor:middle}#chart-7a376912-769a-4227-b75e-1b50372df971 .axis.x:not(.web) text[transform]{text-anchor:start}#chart-7a376912-769a-4227-b75e-1b50372df971 .axis.x:not(.web) text[transform].backwards{text-anchor:end}#chart-7a376912-769a-4227-b75e-1b50372df971 .axis.y text{text-anchor:end}#chart-7a376912-769a-4227-b75e-1b50372df971 .axis.y text[transform].backwards{text-anchor:start}#chart-7a376912-769a-4227-b75e-1b50372df971 .axis.y2 text{text-anchor:start}#chart-7a376912-769a-4227-b75e-1b50372df971 .axis.y2 text[transform].backwards{text-anchor:end}#chart-7a376912-769a-4227-b75e-1b50372df971 .axis .guide.line{stroke-dasharray:4,4}#chart-7a376912-769a-4227-b75e-1b50372df971 .axis .major.guide.line{stroke-dasharray:6,6}#chart-7a376912-769a-4227-b75e-1b50372df971 .horizontal .axis.y .guide.line,#chart-7a376912-769a-4227-b75e-1b50372df971 .horizontal .axis.y2 .guide.line,#chart-7a376912-769a-4227-b75e-1b50372df971 .vertical .axis.x .guide.line{opacity:0}#chart-7a376912-769a-4227-b75e-1b50372df971 .horizontal .axis.always_show .guide.line,#chart-7a376912-769a-4227-b75e-1b50372df971 .vertical .axis.always_show .guide.line{opacity:1 !important}#chart-7a376912-769a-4227-b75e-1b50372df971 .axis.y .guides:hover .guide.line,#chart-7a376912-769a-4227-b75e-1b50372df971 .axis.y2 .guides:hover .guide.line,#chart-7a376912-769a-4227-b75e-1b50372df971 .axis.x .guides:hover .guide.line{opacity:1}#chart-7a376912-769a-4227-b75e-1b50372df971 .axis .guides:hover text{opacity:1}#chart-7a376912-769a-4227-b75e-1b50372df971 .nofill{fill:none}#chart-7a376912-769a-4227-b75e-1b50372df971 .subtle-fill{fill-opacity:.2}#chart-7a376912-769a-4227-b75e-1b50372df971 .dot{stroke-width:1px;fill-opacity:1}#chart-7a376912-769a-4227-b75e-1b50372df971 .dot.active{stroke-width:5px}#chart-7a376912-769a-4227-b75e-1b50372df971 .dot.negative{fill:transparent}#chart-7a376912-769a-4227-b75e-1b50372df971 text,#chart-7a376912-769a-4227-b75e-1b50372df971 tspan{stroke:none !important}#chart-7a376912-769a-4227-b75e-1b50372df971 .series text.active{opacity:1}#chart-7a376912-769a-4227-b75e-1b50372df971 .tooltip rect{fill-opacity:.95;stroke-width:.5}#chart-7a376912-769a-4227-b75e-1b50372df971 .tooltip text{fill-opacity:1}#chart-7a376912-769a-4227-b75e-1b50372df971 .showable{visibility:hidden}#chart-7a376912-769a-4227-b75e-1b50372df971 .showable.shown{visibility:visible}#chart-7a376912-769a-4227-b75e-1b50372df971 .gauge-background{fill:rgba(229,229,229,1);stroke:none}#chart-7a376912-769a-4227-b75e-1b50372df971 .bg-lines{stroke:rgba(249,249,249,1);stroke-width:2px}</style><script type="text/javascript">window.pygal = window.pygal || {};window.pygal.config = window.pygal.config || {};window.pygal.config['7a376912-769a-4227-b75e-1b50372df971'] = {"allow_interruptions": false, "box_mode": "extremes", "classes": ["pygal-chart"], "css": ["file://style.css", "file://graph.css"], "defs": [], "disable_xml_declaration": false, "dots_size": 2.5, "dynamic_print_values": false, "explicit_size": false, "fill": false, "force_uri_protocol": "https", "formatter": null, "half_pie": false, "height": 600, "include_x_axis": false, "inner_radius": 0, "interpolate": null, "interpolation_parameters": {}, "interpolation_precision": 250, "inverse_y_axis": false, "js": ["//kozea.github.io/pygal.js/2.0.x/pygal-tooltips.min.js"], "legend_at_bottom": false, "legend_at_bottom_columns": null, "legend_box_size": 12, "logarithmic": false, "margin": 20, "margin_bottom": null, "margin_left": null, "margin_right": null, "margin_top": null, "max_scale": 16, "min_scale": 4, "missing_value_fill_truncation": "x", "no_data_text": "No data", "no_prefix": false, "order_min": null, "pretty_print": false, "print_labels": false, "print_values": false, "print_values_position": "center", "print_zeroes": true, "range": null, "rounded_bars": null, "secondary_range": null, "show_dots": false, "show_legend": false, "show_minor_x_labels": true, "show_minor_y_labels": true, "show_only_major_dots": false, "show_x_guides": false, "show_x_labels": true, "show_y_guides": true, "show_y_labels": true, "spacing": 10, "stack_from_top": false, "strict": false, "stroke": true, "stroke_style": null, "style": {"background": "rgba(249, 249, 249, 1)", "ci_colors": [], "colors": ["#F44336", "#3F51B5", "#009688", "#FFC107", "#FF5722", "#9C27B0", "#03A9F4", "#8BC34A", "#FF9800", "#E91E63", "#2196F3", "#4CAF50", "#FFEB3B", "#673AB7", "#00BCD4", "#CDDC39", "#9E9E9E", "#607D8B"], "font_family": "Consolas, \"Liberation Mono\", Menlo, Courier, monospace", "foreground": "rgba(0, 0, 0, .87)", "foreground_strong": "rgba(0, 0, 0, 1)", "foreground_subtle": "rgba(0, 0, 0, .54)", "guide_stroke_dasharray": "4,4", "label_font_family": "Consolas, \"Liberation Mono\", Menlo, Courier, monospace", "label_font_size": 10, "legend_font_family": "Consolas, \"Liberation Mono\", Menlo, Courier, monospace", "legend_font_size": 14, "major_guide_stroke_dasharray": "6,6", "major_label_font_family": "Consolas, \"Liberation Mono\", Menlo, Courier, monospace", "major_label_font_size": 10, "no_data_font_family": "Consolas, \"Liberation Mono\", Menlo, Courier, monospace", "no_data_font_size": 64, "opacity": ".7", "opacity_hover": ".8", "plot_background": "rgba(255, 255, 255, 1)", "stroke_opacity": ".8", "stroke_opacity_hover": ".9", "title_font_family": "Consolas, \"Liberation Mono\", Menlo, Courier, monospace", "title_font_size": 16, "tooltip_font_family": "Consolas, \"Liberation Mono\", Menlo, Courier, monospace", "tooltip_font_size": 14, "transition": "150ms", "value_background": "rgba(229, 229, 229, 1)", "value_colors": [], "value_font_family": "Consolas, \"Liberation Mono\", Menlo, Courier, monospace", "value_font_size": 16, "value_label_font_family": "Consolas, \"Liberation Mono\", Menlo, Courier, monospace", "value_label_font_size": 10}, "title": "Fitness evolution", "tooltip_border_radius": 0, "tooltip_fancy_mode": true, "truncate_label": null, "truncate_legend": null, "width": 800, "x_label_rotation": 0, "x_labels": null, "x_labels_major": null, "x_labels_major_count": null, "x_labels_major_every": null, "x_title": "Generations", "xrange": null, "y_label_rotation": 0, "y_labels": null, "y_labels_major": null, "y_labels_major_count": null, "y_labels_major_every": null, "y_title": "Fitness", "zero": 0, "legends": ["Fitness"]}</script><script type="text/javascript" xlink:href="https://kozea.github.io/pygal.js/2.0.x/pygal-tooltips.min.js" /></defs><title>Fitness evolution</title><g class="graph line-graph vertical"><rect class="background" height="600" width="800" x="0" y="0" /><g class="plot" transform="translate(74, 46)"><rect class="background" height="508" width="706.0" x="0" y="0" /><g class="axis y always_show"><path class="line" d="M0.000000 508.000000 h706.000000" /><g class="guides"><path class="major guide line" d="M0.000000 470.387430 h706.000000" /><text class="major" x="-5" y="473.8874303036865">50</text><title>50</title></g><g class="guides"><path class="guide line" d="M0.000000 401.638445 h706.000000" /><text class="" x="-5" y="405.13844529854384">60</text><title>60</title></g><g class="guides"><path class="guide line" d="M0.000000 332.889460 h706.000000" /><text class="" x="-5" y="336.38946029340116">70</text><title>70</title></g><g class="guides"><path class="guide line" d="M0.000000 264.140475 h706.000000" /><text class="" x="-5" y="267.64047528825853">80</text><title>80</title></g><g class="guides"><path class="guide line" d="M0.000000 195.391490 h706.000000" /><text class="" x="-5" y="198.8914902831159">90</text><title>90</title></g><g class="guides"><path class="major guide line" d="M0.000000 126.642505 h706.000000" /><text class="major" x="-5" y="130.1425052779732">100</text><title>100</title></g><g class="guides"><path class="guide line" d="M0.000000 57.893520 h706.000000" /><text class="" x="-5" y="61.39352027283053">110</text><title>110</title></g></g><g class="series serie-0 color-0"><path class="line reactive nofill" d="M13.576923 498.230769 L14.256449 473.137390 14.935974 458.562605 15.615500 447.906512 16.295026 434.912954 16.974551 428.313051 17.654077 416.969469 18.333603 410.300817 19.013129 398.613490 19.692654 388.644887 20.372180 388.507389 21.051706 385.482434 21.731231 374.138851 22.410757 367.538949 23.090283 363.345261 23.769808 359.701564 24.449334 356.607860 25.128860 354.407893 25.808385 355.507876 26.487911 357.157852 27.167437 354.339144 27.846962 348.014237 28.526488 347.051751 29.206014 344.026796 29.885539 340.589347 30.565065 337.839387 31.244591 335.708169 31.924116 333.026958 32.603642 331.858226 33.283168 330.689493 33.962693 328.764521 34.642219 326.358307 35.321745 324.708331 36.001271 322.370866 36.680796 319.827153 37.360322 317.833433 38.039848 316.595951 38.719373 315.495967 39.398899 311.508526 40.078425 309.239809 40.757950 305.252368 41.437476 300.577437 42.117002 298.652466 42.796527 296.521247 43.476053 295.146268 44.155579 295.490012 44.835104 291.640069 45.514630 293.358794 46.194156 293.358794 46.873681 292.327559 47.553207 295.971255 48.232733 287.721377 48.912258 284.490175 49.591784 282.565203 50.271310 280.640232 50.950835 278.852758 51.630361 277.752774 52.309887 277.752774 52.989412 277.684025 53.668938 287.583879 54.348464 288.065122 55.027990 281.327722 55.707515 273.009094 56.387041 270.946625 57.066567 270.396633 57.746092 269.090402 58.425618 272.665349 59.105144 269.159151 59.784669 263.865479 60.464195 261.321767 61.143721 266.134196 61.823246 257.540573 62.502772 256.578087 63.182298 255.959346 63.861823 256.646836 64.541349 253.896877 65.220875 260.359281 65.900400 253.896877 66.579926 258.090565 67.259452 246.471986 67.938977 246.609484 68.618503 244.478266 69.298029 246.128241 69.977554 244.134521 70.657080 237.122124 71.336606 240.078331 72.016132 235.472149 72.695657 230.453473 73.375183 228.803497 74.054709 234.097169 74.734234 232.447193 75.413760 227.084772 76.093286 227.566015 76.772811 220.416121 77.452337 217.666161 78.131863 218.491149 78.811388 222.822335 79.490914 216.978672 80.170440 212.372490 80.849965 209.897526 81.529491 209.416283 82.209017 209.553781 82.888542 209.278785 83.568068 209.210036 84.247594 209.141287 84.927119 209.141287 85.606645 222.616088 86.286171 220.209874 86.965696 208.110053 87.645222 207.285065 88.324748 211.410004 89.004274 216.841174 89.683799 200.135170 90.363325 203.916364 91.042851 200.135170 91.722376 214.228712 92.401902 201.578899 93.081428 192.022790 93.760953 191.816543 94.440479 192.847778 95.120005 184.804147 95.799530 194.772749 96.479056 185.629134 97.158582 188.172847 97.838107 181.641693 98.517633 181.641693 99.197159 181.641693 99.876684 189.066584 100.556210 181.779191 101.235736 188.104098 101.915261 181.916689 102.594787 181.779191 103.274313 181.641693 103.953838 181.710442 104.633364 181.572944 105.312890 181.641693 105.992415 191.404049 106.671941 190.166567 107.351467 193.122774 108.030993 189.341580 108.710518 187.279110 109.390044 179.510475 110.069570 177.997997 110.749095 191.885292 111.428621 181.229199 112.108147 191.335300 112.787672 174.491799 113.467198 174.216803 114.146724 173.941807 114.826249 172.498078 115.505775 170.298111 116.185301 177.585503 116.864826 177.997997 117.544352 166.173172 118.223878 167.616900 118.903403 169.541872 119.582929 162.941969 120.262455 154.417095 120.941980 152.492124 121.621506 150.154658 122.301032 147.748444 122.980557 147.129703 123.660083 146.648460 124.339609 146.029719 125.019135 151.873383 125.698660 141.973529 126.378186 144.585990 127.057712 156.067071 127.737237 143.142262 128.416763 140.392302 129.096289 140.392302 129.775814 171.260597 130.455340 160.535755 131.134866 146.510962 131.814391 138.398582 132.493917 136.542359 133.173443 134.342392 133.852968 132.004926 134.532494 129.667461 135.212020 126.573756 135.891545 126.298760 136.571071 137.229849 137.250597 140.873545 137.930122 139.361068 138.609648 128.292481 139.289174 120.180101 139.968699 127.536242 140.648225 127.673740 141.327751 123.411303 142.007277 134.686137 142.686802 159.848265 143.366328 119.561360 144.045854 134.273643 144.725379 119.423862 145.404905 118.736372 146.084431 118.048882 146.763956 116.605153 147.443482 114.542684 148.123008 126.367509 148.802533 133.723651 149.482059 146.785958 150.161585 152.560873 150.841110 126.642505 151.520636 126.711254 152.200162 118.392627 152.879687 114.267688 153.559213 111.723976 154.238739 114.405186 154.918264 109.180263 155.597790 106.911547 156.277316 125.130028 156.956841 109.730255 157.636367 105.330320 158.315893 104.780328 158.995418 132.417420 159.674944 150.910897 160.354470 121.761327 161.033996 97.767932 161.713521 102.511612 162.393047 102.717858 163.072573 92.611758 163.752098 100.586640 164.431624 103.749093 165.111150 100.105397 165.790675 113.373951 166.470201 99.005413 167.149727 92.061766 167.829252 91.580523 168.508778 90.411790 169.188304 88.830564 169.867829 89.930547 170.547355 90.068045 171.226881 85.805608 171.906406 85.461863 172.585932 85.393114 173.265458 85.530612 173.944983 93.505495 174.624509 85.530612 175.304035 102.305365 175.983560 93.436746 176.663086 85.393114 177.342612 85.393114 178.022138 89.174308 178.701663 92.680507 179.381189 85.668110 180.060715 85.943106 180.740240 89.930547 181.419766 89.930547 182.099292 98.111677 182.778817 85.393114 183.458343 94.124235 184.137869 89.243057 184.817394 84.705624 185.496920 84.086884 186.176446 83.055649 186.855971 80.993179 187.535497 79.549451 188.215023 79.411953 188.894548 91.786770 189.574074 86.630596 190.253600 92.405511 190.933125 80.580685 191.612651 83.261896 192.292177 78.861961 192.971702 78.655714 193.651228 78.655714 194.330754 92.268013 195.010280 78.518216 195.689805 86.355600 196.369331 90.343041 197.048857 90.618037 197.728382 86.768094 198.407908 78.518216 199.087434 95.911709 199.766959 78.518216 200.446485 86.286851 201.126011 78.586965 201.805536 78.518216 202.485062 82.505657 203.164588 91.236778 203.844113 78.518216 204.523639 78.793212 205.203165 78.655714 205.882690 78.586965 206.562216 91.580523 207.241742 81.818167 207.921267 94.055486 208.600793 83.674390 209.280319 80.305689 209.959844 73.087046 210.639370 80.168191 211.318896 71.712066 211.998421 81.061928 212.677947 80.649434 213.357473 72.055811 214.036999 71.780815 214.716524 71.643317 215.396050 71.643317 216.075576 71.712066 216.755101 71.712066 217.434627 79.136957 218.114153 71.780815 218.793678 76.661993 219.473204 71.918313 220.152730 72.124560 220.832255 75.837005 221.511781 85.530612 222.191307 71.849564 222.870832 71.987062 223.550358 72.055811 224.229884 71.780815 224.909409 71.643317 225.588935 71.574568 226.268461 83.536892 226.947986 80.236940 227.627512 78.586965 228.307038 80.443187 228.986563 71.093325 229.666089 70.680831 230.345615 70.199589 231.025141 68.480864 231.704666 65.318411 232.384192 68.412115 233.063718 64.493423 233.743243 63.805933 234.422769 71.368321 235.102295 61.330970 235.781820 63.324690 236.461346 71.093325 237.140872 93.436746 237.820397 62.018459 238.499923 58.306014 239.179449 57.893520 239.858974 68.137119 240.538500 58.099767 241.218026 67.999621 241.897551 57.893520 242.577077 67.037135 243.256603 58.168516 243.936128 63.462188 244.615654 62.430953 245.295180 57.962269 245.974705 66.968386 246.654231 62.430953 247.333757 62.362204 248.013283 57.893520 248.692808 58.237265 249.372334 57.962269 250.051860 57.893520 250.731385 58.168516 251.410911 67.174633 252.090437 85.599361 252.769962 65.318411 253.449488 71.093325 254.129014 85.118118 254.808539 67.862123 255.488065 71.093325 256.167591 71.780815 256.847116 81.543171 257.526642 77.418232 258.206168 58.099767 258.885693 58.237265 259.565219 58.168516 260.244745 62.499702 260.924270 57.893520 261.603796 57.962269 262.283322 62.705949 262.962847 58.306014 263.642373 66.349645 264.321899 58.031018 265.001425 66.418394 265.680950 58.031018 266.360476 71.093325 267.040002 57.893520 267.719527 75.218264 268.399053 66.143398 269.078579 57.893520 269.758104 71.643317 270.437630 75.768256 271.117156 58.099767 271.796681 58.099767 272.476207 67.380880 273.155733 73.293293 273.835258 58.168516 274.514784 58.099767 275.194310 58.099767 275.873835 57.962269 276.553361 75.080767 277.232887 98.455421 277.912412 79.961944 278.591938 60.780978 279.271464 67.380880 279.950989 75.493260 280.630515 72.055811 281.310041 65.180913 281.989566 74.737022 282.669092 79.549451 283.348618 67.862123 284.028144 76.386997 284.707669 57.893520 285.387195 58.099767 286.066721 58.031018 286.746246 57.962269 287.425772 58.306014 288.105298 66.968386 288.784823 68.962107 289.464349 68.480864 290.143875 57.893520 290.823400 57.893520 291.502926 72.330807 292.182452 62.568451 292.861977 58.306014 293.541503 58.099767 294.221029 57.962269 294.900554 57.962269 295.580080 57.824771 296.259606 57.824771 296.939131 57.481026 297.618657 75.012018 298.298183 74.255779 298.977708 55.074812 299.657234 52.874844 300.336760 51.981108 301.016286 51.362367 301.695811 67.105884 302.375337 67.105884 303.054863 50.262383 303.734388 48.956152 304.413914 47.374926 305.093440 43.456233 305.772965 41.531262 306.452491 38.506307 307.132017 37.818817 307.811542 37.543821 308.491068 47.099930 309.170594 37.268825 309.850119 51.156120 310.529645 37.200076 311.209171 45.999946 311.888696 37.268825 312.568222 40.912521 313.247748 37.062578 313.927273 41.737509 314.606799 36.787582 315.286325 55.143561 315.965850 33.487631 316.645376 31.356412 317.324902 30.600173 318.004428 39.193796 318.683953 30.393926 319.363479 30.531424 320.043005 48.887403 320.722530 30.393926 321.402056 40.087533 322.081582 48.818654 322.761107 40.087533 323.440633 60.643480 324.120159 56.381043 324.799684 44.487468 325.479210 35.550100 326.158736 30.393926 326.838261 30.462675 327.517787 35.068857 328.197313 30.462675 328.876838 49.162399 329.556364 63.805933 330.235890 38.300060 330.915415 30.393926 331.594941 30.531424 332.274467 34.518865 332.953992 30.462675 333.633518 30.668922 334.313044 30.600173 334.992569 30.393926 335.672095 30.668922 336.351621 44.074974 337.031147 30.531424 337.710672 40.156282 338.390198 45.587452 339.069724 30.393926 339.749249 40.637525 340.428775 35.068857 341.108301 57.756022 341.787826 43.249986 342.467352 45.587452 343.146878 29.706436 343.826403 29.087696 344.505929 37.131327 345.185455 24.894007 345.864980 23.794024 346.544506 33.693878 347.224032 28.675202 347.903557 23.725275 348.583083 23.862773 349.262609 23.656526 349.942134 33.350133 350.621660 28.881449 351.301186 28.606453 351.980711 32.937639 352.660237 43.387484 353.339763 43.181237 354.019289 33.075137 354.698814 23.794024 355.378340 39.056298 356.057866 32.593894 356.737391 23.519028 357.416917 32.937639 358.096443 23.587777 358.775968 24.000271 359.455494 33.556380 360.135020 23.519028 360.814545 23.656526 361.494071 23.519028 362.173597 56.724788 362.853122 82.299410 363.532648 58.168516 364.212174 23.519028 364.891699 23.656526 365.571225 23.725275 366.250751 23.931522 366.930276 23.725275 367.609802 47.443675 368.289328 58.443512 368.968853 66.212147 369.648379 55.281059 370.327905 36.650084 371.007431 23.519028 371.686956 23.656526 372.366482 32.662643 373.046008 23.519028 373.725533 28.537704 374.405059 23.656526 375.084585 37.887566 375.764110 37.612570 376.443636 43.799978 377.123162 34.175120 377.802687 31.493910 378.482213 46.343691 379.161739 52.187355 379.841264 42.768744 380.520790 32.868890 381.200316 35.756347 381.879841 30.050181 382.559367 41.875007 383.238893 37.268825 383.918418 26.681481 384.597944 16.644129 385.277470 26.956477 385.956995 16.919125 386.636521 36.718833 387.316047 21.731554 387.995572 16.644129 388.675098 16.644129 389.354624 45.106209 390.034150 39.056298 390.713675 39.606290 391.393201 27.918963 392.072727 25.169003 392.752252 16.644129 393.431778 16.644129 394.111304 21.387809 394.790829 25.925242 395.470355 31.562659 396.149881 16.644129 396.829406 16.781627 397.508932 31.012667 398.188458 16.850376 398.867983 17.331619 399.547509 16.644129 400.227035 16.712878 400.906560 25.306501 401.586086 31.562659 402.265612 26.475234 402.945137 29.568938 403.624663 16.987874 404.304189 22.144048 404.983714 29.706436 405.663240 35.137606 406.342766 16.644129 407.022292 16.781627 407.701817 31.287663 408.381343 35.962594 409.060869 36.237590 409.740394 16.644129 410.419920 16.644129 411.099446 36.856331 411.778971 24.481514 412.458497 22.075299 413.138023 16.644129 413.817548 25.925242 414.497074 26.406485 415.176600 31.493910 415.856125 52.599848 416.535651 46.274942 417.215177 24.412765 417.894702 55.487306 418.574228 16.644129 419.253754 30.737671 419.933279 22.006550 420.612805 37.475072 421.292331 26.612732 421.971856 16.644129 422.651382 36.031343 423.330908 21.594056 424.010434 20.975315 424.689959 16.644129 425.369485 16.850376 426.049011 16.712878 426.728536 16.781627 427.408062 17.125372 428.087588 45.793699 428.767113 23.862773 429.446639 16.644129 430.126165 16.644129 430.805690 16.781627 431.485216 16.712878 432.164742 35.137606 432.844267 16.850376 433.523793 16.919125 434.203319 16.644129 434.882844 16.644129 435.562370 16.644129 436.241896 16.644129 436.921421 41.187517 437.600947 27.643967 438.280473 16.644129 438.959998 21.387809 439.639524 16.919125 440.319050 21.731554 440.998575 16.781627 441.678101 30.393926 442.357627 40.431278 443.037153 16.644129 443.716678 16.781627 444.396204 26.200238 445.075730 27.437720 445.755255 16.712878 446.434781 16.781627 447.114307 16.712878 447.793832 16.712878 448.473358 21.869052 449.152884 16.850376 449.832409 16.987874 450.511935 37.681319 451.191461 16.919125 451.870986 16.712878 452.550512 16.644129 453.230038 41.325015 453.909563 27.093975 454.589089 16.712878 455.268615 16.781627 455.948140 16.919125 456.627666 17.262870 457.307192 26.475234 457.986717 21.387809 458.666243 16.644129 459.345769 16.850376 460.025295 16.644129 460.704820 16.781627 461.384346 26.062740 462.063872 32.525145 462.743397 41.462513 463.422923 26.818979 464.102449 21.319060 464.781974 16.987874 465.461500 16.712878 466.141026 16.850376 466.820551 17.194121 467.500077 22.075299 468.179603 16.644129 468.859128 36.581335 469.538654 40.843772 470.218180 16.712878 470.897705 16.644129 471.577231 16.781627 472.256757 16.712878 472.936282 16.781627 473.615808 16.644129 474.295334 21.594056 474.974859 16.644129 475.654385 16.644129 476.333911 16.644129 477.013437 16.644129 477.692962 16.850376 478.372488 16.850376 479.052014 31.218914 479.731539 35.481351 480.411065 45.999946 481.090591 36.512586 481.770116 46.687436 482.449642 16.644129 483.129168 16.712878 483.808693 16.644129 484.488219 36.306339 485.167745 21.525307 485.847270 16.712878 486.526796 21.456558 487.206322 21.594056 487.885847 16.712878 488.565373 16.644129 489.244899 16.644129 489.924424 16.644129 490.603950 26.612732 491.283476 16.644129 491.963001 35.000108 492.642527 58.581010 493.322053 30.943918 494.001579 26.612732 494.681104 58.168516 495.360630 21.456558 496.040156 16.644129 496.719681 16.919125 497.399207 26.681481 498.078733 16.919125 498.758258 16.781627 499.437784 16.712878 500.117310 16.644129 500.796835 16.644129 501.476361 16.644129 502.155887 17.056623 502.835412 16.850376 503.514938 16.781627 504.194464 25.856493 504.873989 35.275104 505.553515 25.650246 506.233041 25.787744 506.912566 16.644129 507.592092 16.919125 508.271618 27.575218 508.951143 16.712878 509.630669 31.012667 510.310195 21.456558 510.989720 16.850376 511.669246 50.812375 512.348772 22.212797 513.028298 16.644129 513.707823 21.800303 514.387349 26.543983 515.066875 30.943918 515.746400 43.043740 516.425926 41.118768 517.105452 26.750230 517.784977 16.850376 518.464503 40.225031 519.144029 16.644129 519.823554 16.781627 520.503080 16.919125 521.182606 16.781627 521.862131 26.681481 522.541657 16.644129 523.221183 16.850376 523.900708 25.856493 524.580234 25.581497 525.259760 26.268987 525.939285 16.712878 526.618811 25.581497 527.298337 16.712878 527.977862 16.644129 528.657388 26.062740 529.336914 16.712878 530.016440 31.012667 530.695965 30.737671 531.375491 35.893845 532.055017 40.500027 532.734542 16.644129 533.414068 31.493910 534.093594 29.500189 534.773119 31.425161 535.452645 14.512911 536.132171 12.244194 536.811696 25.581497 537.491222 19.394089 538.170748 9.769231 538.850273 10.319223 539.529799 24.481514 540.209325 10.112976 540.888850 9.906729 541.568376 9.769231 542.247902 9.769231 542.927427 9.769231 543.606953 9.769231 544.286479 14.719158 544.966004 9.975478 545.645530 15.200401 546.325056 9.906729 547.004582 25.787744 547.684107 25.512748 548.363633 19.806583 549.043159 29.225194 549.722684 19.875332 550.402210 33.625129 551.081736 20.150328 551.761261 19.187842 552.440787 25.169003 553.120313 9.769231 553.799838 19.187842 554.479364 23.794024 555.158890 9.769231 555.838415 9.837980 556.517941 9.906729 557.197467 9.769231 557.876992 19.187842 558.556518 9.906729 559.236044 10.181725 559.915569 19.394089 560.595095 30.118930 561.274621 9.975478 561.954146 9.769231 562.633672 9.769231 563.313198 9.769231 563.992723 9.769231 564.672249 9.837980 565.351775 9.906729 566.031301 9.769231 566.710826 29.568938 567.390352 33.693878 568.069878 24.550263 568.749403 9.837980 569.428929 9.906729 570.108455 9.769231 570.787980 25.169003 571.467506 9.769231 572.147032 9.769231 572.826557 29.225194 573.506083 9.769231 574.185609 24.825258 574.865134 34.793861 575.544660 9.837980 576.224186 20.012830 576.903711 9.975478 577.583237 9.769231 578.262763 10.044227 578.942288 43.937476 579.621814 32.112651 580.301340 19.600336 580.980865 9.769231 581.660391 9.837980 582.339917 19.256591 583.019443 14.444162 583.698968 9.837980 584.378494 13.825421 585.058020 9.769231 585.737545 35.206355 586.417071 30.462675 587.096597 31.150165 587.776122 33.487631 588.455648 9.906729 589.135174 9.837980 589.814699 14.787907 590.494225 10.181725 591.173751 10.181725 591.853276 10.181725 592.532802 14.581660 593.212328 9.769231 593.891853 24.962756 594.571379 9.769231 595.250905 9.906729 595.930430 19.875332 596.609956 9.769231 597.289482 10.044227 597.969007 25.856493 598.648533 27.712716 599.328059 55.762302 600.007585 9.906729 600.687110 13.962919 601.366636 9.769231 602.046162 9.769231 602.725687 9.769231 603.405213 19.944081 604.084739 17.469117 604.764264 9.837980 605.443790 9.769231 606.123316 14.650409 606.802841 14.787907 607.482367 29.156445 608.161893 9.837980 608.841418 9.837980 609.520944 15.544146 610.200470 26.268987 610.879995 22.625291 611.559521 9.769231 612.239047 10.044227 612.918572 15.406648 613.598098 19.806583 614.277624 10.112976 614.957149 10.044227 615.636675 14.306664 616.316201 16.987874 616.995726 19.462838 617.675252 12.312943 618.354778 14.444162 619.034304 9.769231 619.713829 14.719158 620.393355 19.187842 621.072881 9.769231 621.752406 24.000271 622.431932 24.275267 623.111458 24.619012 623.790983 16.644129 624.470509 12.244194 625.150035 9.769231 625.829560 13.894170 626.509086 9.769231 627.188612 14.856656 627.868137 19.256591 628.547663 14.169166 629.227189 9.769231 629.906714 9.837980 630.586240 19.325340 631.265766 24.756510 631.945291 38.850051 632.624817 33.556380 633.304343 21.319060 633.983868 37.268825 634.663394 23.450279 635.342920 20.150328 636.022446 9.769231 636.701971 20.219076 637.381497 19.462838 638.061023 9.837980 638.740548 9.769231 639.420074 9.769231 640.099600 19.875332 640.779125 14.581660 641.458651 9.769231 642.138177 18.981595 642.817702 38.575055 643.497228 27.368971 644.176754 23.312781 644.856279 9.769231 645.535805 15.200401 646.215331 9.837980 646.894856 19.737834 647.574382 10.044227 648.253908 9.975478 648.933433 19.944081 649.612959 19.600336 650.292485 9.906729 650.972010 9.837980 651.651536 9.769231 652.331062 9.769231 653.010588 9.975478 653.690113 9.769231 654.369639 9.837980 655.049165 40.018784 655.728690 10.387972 656.408216 15.406648 657.087742 23.794024 657.767267 23.794024 658.446793 9.906729 659.126319 9.769231 659.805844 19.394089 660.485370 48.612407 661.164896 25.581497 661.844421 27.368971 662.523947 23.175283 663.203473 9.769231 663.882998 19.325340 664.562524 9.769231 665.242050 21.044064 665.921575 9.837980 666.601101 9.769231 667.280627 9.769231 667.960152 9.906729 668.639678 9.837980 669.319204 9.837980 669.998729 20.150328 670.678255 10.112976 671.357781 25.100254 672.037307 9.769231 672.716832 10.112976 673.396358 20.081579 674.075884 24.206518 674.755409 9.769231 675.434935 9.837980 676.114461 9.975478 676.793986 14.581660 677.473512 36.650084 678.153038 20.494072 678.832563 25.443999 679.512089 10.181725 680.191615 19.806583 680.871140 15.131652 681.550666 23.862773 682.230192 15.475397 682.909717 10.044227 683.589243 15.200401 684.268769 9.769231 684.948294 9.906729 685.627820 9.769231 686.307346 15.062903 686.986871 14.719158 687.666397 14.994154 688.345923 25.375250 689.025449 9.975478 689.704974 9.769231 690.384500 24.481514 691.064026 40.225031 691.743551 37.887566 692.423077 14.787907" /></g></g><g class="titles"><text class="title plot_title" x="400.0" y="26">Fitness evolution</text><text class="title" x="427.0" y="580">Generations</text><text class="title" transform="rotate(-90 0.000000 300.000000)" x="0" y="326.0">Fitness</text></g><g class="plot overlay" transform="translate(74, 46)"><g class="series serie-0 color-0" /></g><g class="plot text-overlay" transform="translate(74, 46)"><g class="series serie-0 color-0" /></g><g class="plot tooltip-overlay" transform="translate(74, 46)"><g class="tooltip" style="opacity: 0" transform="translate(0 0)"><rect class="tooltip-box" height="0" rx="0" ry="0" width="0" /><g class="text" /></g></g></g></svg>